<svg width="458" height="326" viewBox="0 0 458 326" fill="none" xmlns="http://www.w3.org/2000/svg">
<g clip-path="url(#clip0_122_205)">
<path d="M243.813 40.4092L8.69019 323.802H349.932L402.579 87.6568" fill="#F3F5FD"/>
<path d="M458.002 154.034H336.259C336.948 149.74 339.477 145.758 343.343 143.815C348.124 141.41 353.934 142.12 359.328 142.741C364.723 143.363 370.676 143.709 375.104 140.783C377.331 139.31 378.907 137.164 380.711 135.254C385.866 129.79 393.995 126.053 401.537 127.982C405.333 128.953 408.572 131.222 412.17 132.704C415.951 134.255 420.084 134.922 424.207 134.645C428.457 134.353 432.687 133.061 436.903 133.64C442.249 134.379 446.626 138.023 449.797 142.088C452.8 145.937 454.943 149.672 458.002 154.034Z" fill="#DEE8F5"/>
<path d="M160.412 154.741H4.09044C3.37553 153.454 2.95872 152.042 2.86682 150.597C2.77493 149.151 3.01 147.703 3.5569 146.347C4.20799 144.828 5.23987 143.474 6.56693 142.399C7.89399 141.324 9.47797 140.558 11.1874 140.165C16.2908 139.041 22.0593 141.348 26.7113 139.102C30.3212 137.357 31.9889 133.418 32.7581 129.711C33.5273 126.003 33.7434 122.086 35.6824 118.765C38.941 113.191 46.6769 110.7 53.3569 112.029C60.0368 113.358 65.5839 117.877 69.2373 123.237C70.7397 125.441 72.1047 127.931 74.5807 129.162C77.4392 130.58 80.9975 129.905 83.9333 128.634C86.8691 127.363 89.5355 125.537 92.6087 124.592C98.8142 122.685 106.234 125.014 109.923 130.026C112.562 133.609 113.667 138.542 117.811 140.55C119.518 141.376 121.497 141.549 123.419 141.592C131.09 141.765 138.974 140.105 146.314 142.178C149.54 143.135 152.487 144.765 154.931 146.942C157.374 149.12 159.249 151.788 160.412 154.741V154.741Z" fill="#DEE8F5"/>
<path d="M347.924 81.5619C352.015 69.2025 339.872 54.7701 320.802 49.3261C301.732 43.882 282.956 49.488 278.865 61.8474C274.774 74.2067 286.917 88.6391 305.987 94.0831C325.058 99.5272 343.833 93.9212 347.924 81.5619Z" fill="#D7E8F4"/>
<path d="M414.308 90.1937C412.771 94.8357 402.362 96.5068 386.408 95.5096C367.181 94.3122 339.898 89.2333 310.378 80.8061C280.859 72.3789 255.223 62.3504 238.587 53.3133C224.784 45.8131 217.184 39.0012 218.721 34.3604C220.528 28.9004 234.62 27.5506 255.577 29.8225C273.895 31.8082 297.46 36.5592 322.646 43.7497C347.831 50.9403 370.204 59.3022 386.559 67.2145C405.273 76.2657 416.115 84.7337 414.308 90.1937Z" fill="#C1D8ED"/>
<path d="M385.7 81.0258C367.782 79.9084 342.353 75.1756 314.843 67.3223C287.333 59.4691 263.437 50.1215 247.934 41.6996C251.622 33.5117 257.001 26.0738 263.768 19.806C282.192 2.73807 309.738 -4.58046 336.147 2.95898C362.555 10.4984 380.92 30.9225 385.841 54.6561C387.646 63.3704 387.599 72.3286 385.7 81.0258V81.0258Z" fill="#D7E8F4"/>
<path d="M246.89 103.064L249.361 100.068C249.361 100.068 246.973 95.719 241.779 95.7239C240.058 95.7239 240.029 97.5325 240.539 97.8187C242.224 98.7638 243.974 99.5174 244.859 100.856C244.103 100.722 243.055 100.596 242.984 100.908C242.795 101.728 246.89 103.064 246.89 103.064Z" fill="#E98862"/>
<path d="M255.935 130.628L249.516 127.06L257.732 114.311L244.488 103.071L249.535 97.9421L265.034 111.097C265.67 111.637 266.086 112.365 266.211 113.158C266.336 113.95 266.163 114.758 265.72 115.445L255.935 130.628Z" fill="#367CFF"/>
<path d="M232.928 215.625L232.023 208.987C234.728 208.669 237.972 208.266 238.496 208.168L238.413 208.186L240.158 214.678C239.948 214.725 239.31 214.873 232.928 215.625Z" fill="#E98862"/>
<path d="M232.067 224.33C232.107 224.507 232.185 224.673 232.297 224.82C232.41 224.966 232.553 225.09 232.719 225.183C232.885 225.276 233.07 225.336 233.262 225.359C233.454 225.383 233.649 225.369 233.836 225.319C234.094 225.25 234.325 225.114 234.503 224.927C234.681 224.74 234.797 224.51 234.839 224.264L235.906 216.11C235.926 215.952 235.909 215.792 235.856 215.641C235.803 215.49 235.716 215.351 235.6 215.234C234.585 214.334 233.907 213.156 233.667 211.872C233.523 210.864 233.687 209.839 234.141 208.913C234.188 208.83 234.209 208.737 234.201 208.644C234.193 208.55 234.156 208.461 234.096 208.387C234.035 208.312 233.953 208.255 233.859 208.222C233.764 208.189 233.662 208.182 233.563 208.201L229.546 208.966C229.428 208.989 229.315 209.033 229.215 209.096C229.115 209.159 229.029 209.24 228.963 209.334C228.897 209.428 228.851 209.533 228.828 209.643C228.806 209.754 228.807 209.867 228.832 209.977L232.067 224.33Z" fill="#C1D8ED"/>
<path d="M302.118 235.156C302.02 232.625 301.878 229.588 301.821 229.095L301.832 229.172L308.951 228.142C308.985 228.34 309.085 228.944 309.319 234.914L302.118 235.156Z" fill="#E98862"/>
<path d="M318.581 236.49C318.773 236.469 318.959 236.412 319.126 236.321C319.294 236.23 319.439 236.109 319.553 235.964C319.668 235.818 319.749 235.653 319.791 235.477C319.834 235.302 319.837 235.12 319.8 234.943V234.943C319.749 234.698 319.624 234.472 319.439 234.291C319.255 234.11 319.018 233.981 318.757 233.921L310.109 232.204C309.942 232.171 309.768 232.172 309.601 232.207C309.435 232.243 309.278 232.311 309.142 232.408C308.086 233.266 306.761 233.787 305.363 233.894C304.268 233.936 303.183 233.692 302.231 233.19C302.147 233.139 302.048 233.112 301.948 233.111C301.847 233.11 301.748 233.136 301.663 233.185C301.578 233.234 301.509 233.305 301.465 233.389C301.421 233.474 301.404 233.568 301.416 233.66L301.876 237.445C301.89 237.556 301.927 237.664 301.986 237.763C302.045 237.861 302.124 237.947 302.218 238.017C302.313 238.087 302.422 238.139 302.538 238.169C302.655 238.2 302.776 238.209 302.896 238.196L318.581 236.49Z" fill="#C1D8ED"/>
<path d="M303.333 190.272C299.658 183.862 277.861 156.942 275.522 154.034L252.592 165.373C252.592 165.373 259.196 196.865 259.281 197.787L236.004 206.252L239.036 217.7L269.12 209.758C270.776 209.44 272.26 208.592 273.312 207.362C274.363 206.132 274.917 204.598 274.874 203.027C274.874 203.027 271.346 174.94 271.297 174.415L290.074 193.626L299.505 231.734L312.071 230.06C312.071 230.06 304.819 192.865 303.333 190.272Z" fill="#262626"/>
<path d="M204.802 117.587L201.774 120.105C201.774 120.105 196.861 117.518 196.468 112.708C196.337 111.115 198.276 110.949 198.622 111.399C199.766 112.886 200.77 115.16 202.276 115.876C202.074 115.186 201.859 114.225 202.187 114.136C203.053 113.898 204.802 117.587 204.802 117.587Z" fill="#E98862"/>
<path d="M250.961 167.79C248.626 165.118 249.422 160.918 245.256 155.46C241.09 150.001 230.357 146.578 231.642 139.583C232.015 137.556 233.643 135.33 236.333 133.559C237.644 134.885 247.19 128.62 246.172 127.142C246.541 126.907 246.826 126.725 247.008 126.618C256.581 120.878 259.986 133.381 265.397 140.653C271.724 149.167 275.392 149.142 276.153 152.52C276.886 155.793 254.629 171.993 250.961 167.79Z" fill="#367CFF"/>
<path d="M245.492 133.13C242.206 135.607 237.644 134.885 236.333 133.559C236.337 133.555 236.337 133.551 236.342 133.551C239.734 131.325 244.171 128.414 246.172 127.142C247.19 128.62 247.955 131.272 245.492 133.13Z" fill="#E98862"/>
<path d="M234.921 143.347L214.401 138.227C213.553 138.015 212.812 137.533 212.309 136.864L199.148 119.431L205.273 115.443L217.654 131.844L236.862 136.637L234.921 143.347Z" fill="#367CFF"/>
<path d="M237.581 133.725C237.581 133.725 239.19 131.383 235.128 125.838L239.381 122.519C239.381 122.519 242.028 128.015 245.443 128.405L237.581 133.725Z" fill="#E98862"/>
<g opacity="0.15">
<path d="M243.804 127.826L238.145 127.099L241.227 125.437C241.918 126.376 242.792 127.186 243.804 127.826V127.826Z" fill="black"/>
</g>
<path d="M231.056 125C232.461 126.592 234.518 127.717 236.542 127.405C238.78 127.117 240.908 126.325 242.74 125.098C247.7 121.964 239.969 111.521 236.198 110.687C232.427 109.853 226.003 115.018 227.298 119.05C227.969 121.136 229.718 123.485 231.056 125Z" fill="#E98862"/>
<path d="M241.763 113.068C241.763 113.068 235.981 105.797 227.917 112.572C226.648 113.725 225.806 115.223 225.511 116.848C224.72 116.347 223.786 116.077 222.829 116.074C221.872 116.07 220.935 116.333 220.141 116.828C219.346 117.323 218.729 118.028 218.369 118.852C218.01 119.676 217.924 120.581 218.124 121.45C218.323 122.319 218.799 123.113 219.489 123.73C220.178 124.346 221.051 124.756 221.994 124.907C222.938 125.058 223.908 124.944 224.78 124.578C225.653 124.212 226.387 123.612 226.889 122.855C226.966 122.962 227.043 123.07 227.126 123.177C230.642 127.715 236.448 127.855 236.448 127.855C236.448 127.855 237.112 126.426 231.934 118.834C234.036 117.938 238.764 115.753 241.763 113.068Z" fill="#0F1011"/>
<path d="M237.424 119.785C237.697 119.785 237.919 119.579 237.919 119.325C237.919 119.071 237.697 118.865 237.424 118.865C237.15 118.865 236.928 119.071 236.928 119.325C236.928 119.579 237.15 119.785 237.424 119.785Z" fill="#0F1011"/>
<path d="M240.665 117.737C240.939 117.737 241.161 117.531 241.161 117.277C241.161 117.023 240.939 116.817 240.665 116.817C240.392 116.817 240.17 117.023 240.17 117.277C240.17 117.531 240.392 117.737 240.665 117.737Z" fill="#0F1011"/>
<path d="M239.628 116.649C239.576 116.649 239.526 116.633 239.485 116.604C239.444 116.574 239.415 116.533 239.402 116.486C239.389 116.44 239.393 116.391 239.414 116.347C239.434 116.303 239.47 116.266 239.515 116.243L240.665 115.655C240.719 115.633 240.78 115.63 240.836 115.647C240.891 115.664 240.938 115.701 240.966 115.749C240.995 115.797 241.002 115.853 240.987 115.906C240.973 115.959 240.937 116.005 240.887 116.034L239.739 116.62C239.705 116.638 239.667 116.648 239.628 116.649Z" fill="#0F1011"/>
<path d="M235.937 119.117C235.89 119.117 235.844 119.104 235.806 119.079C235.767 119.055 235.737 119.02 235.72 118.98C235.703 118.94 235.699 118.896 235.709 118.853C235.72 118.811 235.743 118.772 235.777 118.743L236.75 117.899C236.795 117.863 236.854 117.844 236.914 117.847C236.974 117.85 237.031 117.875 237.072 117.915C237.113 117.956 237.135 118.01 237.135 118.066C237.134 118.122 237.11 118.175 237.068 118.215L236.095 119.059C236.052 119.096 235.995 119.117 235.937 119.117V119.117Z" fill="#0F1011"/>
<path d="M239.546 122.372C240.505 121.978 241.379 121.426 242.125 120.742C242.125 120.742 242.71 121.72 241.509 122.476C240.309 123.233 239.546 122.372 239.546 122.372Z" fill="white"/>
<path d="M235.779 121.484C235.936 121.695 236.047 121.934 236.104 122.185C236.161 122.437 236.165 122.696 236.114 122.949C236.063 123.202 235.959 123.442 235.807 123.657C235.656 123.872 235.46 124.058 235.231 124.202C235.002 124.347 234.745 124.448 234.474 124.5C234.203 124.552 233.923 124.553 233.651 124.505C233.38 124.456 233.121 124.358 232.89 124.216C232.659 124.074 232.461 123.891 232.307 123.678C232.147 123.467 232.035 123.229 231.976 122.978C231.918 122.726 231.914 122.466 231.966 122.214C232.018 121.961 232.124 121.72 232.278 121.506C232.432 121.292 232.63 121.11 232.862 120.968C234.14 120.244 235.127 120.593 235.779 121.484Z" fill="#E98862"/>
<g opacity="0.15">
<path d="M240.691 120.538C240.656 120.557 240.614 120.564 240.573 120.556C240.533 120.549 240.497 120.528 240.471 120.498C240.446 120.468 240.433 120.431 240.435 120.392C240.437 120.354 240.454 120.318 240.482 120.29L241.206 119.581L239.819 118.635C239.783 118.61 239.76 118.573 239.753 118.532C239.747 118.491 239.758 118.449 239.785 118.415C239.811 118.382 239.851 118.359 239.895 118.352C239.939 118.345 239.985 118.355 240.021 118.379L241.564 119.431C241.584 119.444 241.6 119.461 241.612 119.481C241.624 119.5 241.631 119.522 241.633 119.545C241.635 119.567 241.632 119.59 241.624 119.611C241.617 119.632 241.604 119.652 241.587 119.668L240.73 120.51C240.719 120.521 240.706 120.53 240.691 120.538V120.538Z" fill="black"/>
</g>
<path d="M49.4416 243.945C49.3024 244.205 49.1593 244.464 49.017 244.723C48.6316 245.427 48.2327 246.128 47.8201 246.825C47.6867 247.052 47.5573 247.28 47.4199 247.504C46.8792 248.402 46.319 249.295 45.7392 250.183C45.6739 250.284 45.6059 250.383 45.5392 250.483C44.9305 251.404 44.304 252.321 43.6513 253.231L21.9868 283.674H40.8942L62.5605 253.229C63.2132 252.321 63.8388 251.403 64.447 250.483C64.5142 250.382 64.5831 250.281 64.6493 250.181C64.6916 250.116 64.7382 250.051 64.7783 249.987C65.3149 249.163 65.8289 248.335 66.3295 247.502C66.4651 247.277 66.5963 247.051 66.7297 246.825C67.1408 246.126 67.541 245.424 67.9302 244.719C68.0716 244.461 68.2143 244.203 68.3526 243.944C68.839 243.036 69.3125 242.122 69.758 241.202H50.8466C50.4011 242.123 49.9307 243.036 49.4416 243.945Z" fill="#9EBCEA"/>
<path d="M93.7702 214.594H74.8623V283.675H89.0866V301.721H74.8623V324.497H93.7702V301.721H107.994V283.675H93.7702V214.594Z" fill="#9EBCEA"/>
<path d="M144.343 307.226C144.495 307.237 144.648 307.245 144.803 307.252C144.908 307.257 145.009 307.268 145.114 307.271C145.283 307.276 145.454 307.278 145.627 307.278H164.536C164.256 307.278 163.984 307.266 163.711 307.252C163.556 307.245 163.402 307.237 163.25 307.226C163.057 307.211 162.867 307.191 162.678 307.17C162.531 307.153 162.384 307.137 162.24 307.116C162.032 307.086 161.827 307.05 161.624 307.012C161.517 306.992 161.408 306.974 161.302 306.952C161.039 306.896 160.781 306.831 160.526 306.761C160.482 306.749 160.437 306.74 160.393 306.727C160.09 306.64 159.794 306.542 159.504 306.434C159.42 306.403 159.34 306.365 159.257 306.332C159.057 306.253 158.857 306.172 158.665 306.082C158.343 305.933 158.027 305.774 157.722 305.597C157.694 305.581 157.667 305.561 157.639 305.545C157.363 305.382 157.093 305.208 156.831 305.022C156.688 304.922 156.55 304.816 156.412 304.707C156.306 304.624 156.197 304.545 156.093 304.459C155.948 304.338 155.808 304.208 155.667 304.08C155.573 303.994 155.476 303.914 155.384 303.823C155.23 303.673 155.082 303.513 154.934 303.354C154.86 303.276 154.784 303.202 154.711 303.121C154.494 302.876 154.283 302.621 154.077 302.354C153.873 302.088 153.675 301.811 153.483 301.521C153.419 301.425 153.359 301.321 153.297 301.223C153.171 301.026 153.046 300.829 152.926 300.623C152.855 300.499 152.788 300.369 152.719 300.243C152.614 300.051 152.508 299.86 152.408 299.66C152.337 299.518 152.27 299.371 152.201 299.225C152.092 298.993 151.979 298.764 151.877 298.523C151.738 298.198 151.604 297.857 151.472 297.509C151.441 297.426 151.411 297.347 151.383 297.266C151.255 296.916 151.13 296.559 151.009 296.187C150.995 296.142 150.981 296.094 150.965 296.049C150.855 295.706 150.749 295.353 150.646 294.99C150.621 294.902 150.596 294.816 150.571 294.727C150.461 294.328 150.354 293.919 150.251 293.499C150.232 293.422 150.214 293.342 150.195 293.263C150.105 292.884 150.017 292.496 149.933 292.099C149.914 292.013 149.896 291.929 149.878 291.843C149.818 291.554 149.762 291.255 149.705 290.957C149.661 290.718 149.613 290.484 149.569 290.239C149.515 289.94 149.466 289.629 149.416 289.321C149.375 289.073 149.333 288.831 149.294 288.578C149.244 288.253 149.2 287.915 149.153 287.581C149.118 287.33 149.082 287.085 149.049 286.829C149.004 286.475 148.96 286.107 148.92 285.742C148.891 285.491 148.859 285.247 148.831 284.99C148.786 284.587 148.749 284.169 148.71 283.752C148.688 283.522 148.665 283.297 148.643 283.065C148.598 282.576 148.561 282.072 148.524 281.566C148.511 281.392 148.496 281.225 148.483 281.05C148.435 280.363 148.39 279.663 148.35 278.947C148.342 278.804 148.337 278.655 148.329 278.511C148.3 277.933 148.271 277.351 148.248 276.754C148.245 276.687 148.244 276.617 148.241 276.55C148.218 275.935 148.198 275.31 148.181 274.675C148.176 274.457 148.171 274.236 148.166 274.015C148.154 273.497 148.144 272.973 148.137 272.442C148.133 272.221 148.13 272.002 148.128 271.779C148.12 271.044 148.114 270.301 148.114 269.542C148.114 268.751 148.12 267.977 148.128 267.213C148.131 266.965 148.136 266.722 148.14 266.476C148.148 265.965 148.156 265.456 148.168 264.957C148.175 264.673 148.184 264.395 148.192 264.116C148.204 263.662 148.218 263.211 148.236 262.766C148.247 262.483 148.258 262.203 148.27 261.924C148.288 261.492 148.308 261.064 148.33 260.642C148.344 260.372 148.357 260.101 148.372 259.836C148.397 259.401 148.425 258.975 148.453 258.551C148.469 258.314 148.484 258.074 148.501 257.841C148.538 257.332 148.578 256.834 148.621 256.341C148.633 256.205 148.643 256.065 148.654 255.931C148.711 255.304 148.772 254.691 148.837 254.091C148.846 254.008 148.856 253.928 148.865 253.846C148.919 253.357 148.977 252.876 149.037 252.405C149.055 252.269 149.072 252.133 149.09 251.999C149.161 251.468 149.234 250.945 149.312 250.437C149.322 250.378 149.332 250.321 149.34 250.262C149.412 249.806 149.488 249.36 149.565 248.923C149.588 248.799 149.61 248.675 149.633 248.551C149.721 248.071 149.81 247.601 149.908 247.143C149.916 247.108 149.923 247.074 149.931 247.039C150.02 246.614 150.116 246.2 150.214 245.795C150.241 245.683 150.267 245.572 150.295 245.462C150.368 245.165 150.446 244.877 150.524 244.591C150.571 244.416 150.617 244.24 150.665 244.07C150.748 243.78 150.833 243.505 150.92 243.229C150.964 243.09 151.005 242.946 151.049 242.811C151.172 242.434 151.299 242.069 151.43 241.716C151.44 241.689 151.45 241.66 151.46 241.634C151.608 241.238 151.761 240.856 151.919 240.49C152.06 240.159 152.209 239.843 152.361 239.532C152.405 239.443 152.45 239.356 152.494 239.269C152.614 239.032 152.737 238.801 152.864 238.575C152.906 238.501 152.946 238.425 152.989 238.352C153.153 238.068 153.322 237.793 153.496 237.526C153.541 237.46 153.585 237.397 153.63 237.332C153.77 237.126 153.912 236.922 154.059 236.727C154.126 236.637 154.195 236.551 154.263 236.464C154.394 236.299 154.527 236.134 154.663 235.977C154.737 235.891 154.811 235.807 154.886 235.724C155.03 235.564 155.177 235.411 155.326 235.261C155.394 235.193 155.46 235.123 155.53 235.055C155.958 234.642 156.418 234.26 156.908 233.912C156.985 233.858 157.063 233.808 157.141 233.755C157.31 233.642 157.481 233.531 157.655 233.425C157.744 233.37 157.838 233.317 157.932 233.265C158.102 233.168 158.275 233.077 158.451 232.99C158.543 232.944 158.635 232.898 158.728 232.854C158.932 232.759 159.139 232.671 159.351 232.588C159.417 232.562 159.484 232.532 159.549 232.505C159.828 232.401 160.111 232.306 160.4 232.22C160.47 232.2 160.543 232.183 160.613 232.164C160.836 232.102 161.061 232.045 161.29 231.995C161.395 231.972 161.502 231.953 161.608 231.931C161.811 231.892 162.017 231.856 162.225 231.825C162.338 231.809 162.451 231.793 162.565 231.779C162.783 231.752 163.005 231.73 163.229 231.713C163.331 231.705 163.433 231.694 163.537 231.688C163.863 231.669 164.195 231.656 164.533 231.656H145.628C145.29 231.656 144.961 231.669 144.632 231.688C144.528 231.694 144.427 231.705 144.324 231.713C144.102 231.73 143.879 231.752 143.66 231.779C143.546 231.793 143.432 231.809 143.32 231.825C143.112 231.856 142.907 231.892 142.703 231.931C142.596 231.952 142.49 231.973 142.385 231.995C142.156 232.045 141.931 232.102 141.709 232.164C141.638 232.183 141.565 232.2 141.495 232.22C141.206 232.306 140.923 232.401 140.645 232.505C140.577 232.531 140.512 232.561 140.445 232.588C140.235 232.671 140.028 232.759 139.825 232.853C139.731 232.894 139.639 232.944 139.547 232.989C139.372 233.077 139.199 233.169 139.028 233.264C138.935 233.316 138.843 233.369 138.751 233.424C138.578 233.528 138.406 233.639 138.238 233.754C138.16 233.806 138.081 233.856 138.004 233.911C137.765 234.081 137.529 234.258 137.301 234.448L137.297 234.45C137.067 234.641 136.845 234.843 136.626 235.053C136.556 235.12 136.49 235.191 136.421 235.26C136.273 235.409 136.126 235.561 135.983 235.72C135.907 235.803 135.833 235.889 135.76 235.975C135.625 236.133 135.492 236.294 135.36 236.46C135.292 236.548 135.222 236.635 135.155 236.724C135.009 236.919 134.867 237.121 134.727 237.327C134.683 237.393 134.638 237.456 134.594 237.524C134.584 237.539 134.573 237.553 134.563 237.568C134.399 237.82 134.241 238.082 134.086 238.349C134.044 238.422 134.003 238.498 133.962 238.573C133.835 238.798 133.712 239.029 133.592 239.266C133.548 239.354 133.503 239.441 133.459 239.53C133.307 239.841 133.158 240.158 133.017 240.487C133.001 240.523 132.986 240.558 132.972 240.594C132.831 240.928 132.693 241.274 132.559 241.632C132.55 241.655 132.542 241.68 132.534 241.702C132.401 242.06 132.273 242.429 132.148 242.81C132.104 242.945 132.063 243.088 132.019 243.226C131.933 243.503 131.847 243.78 131.764 244.069C131.716 244.238 131.67 244.414 131.624 244.586C131.572 244.776 131.518 244.961 131.468 245.156C131.443 245.256 131.419 245.362 131.393 245.463C131.366 245.572 131.34 245.681 131.313 245.791C131.216 246.2 131.12 246.617 131.029 247.044C131.022 247.077 131.015 247.108 131.008 247.14C130.911 247.598 130.82 248.071 130.731 248.552C130.709 248.674 130.687 248.796 130.666 248.918C130.587 249.357 130.512 249.804 130.44 250.262C130.431 250.321 130.421 250.377 130.412 250.436C130.333 250.945 130.26 251.469 130.189 252C130.172 252.133 130.155 252.267 130.138 252.401C130.077 252.872 130.019 253.352 129.965 253.84C129.956 253.923 129.946 254.005 129.936 254.093C129.933 254.124 129.929 254.154 129.925 254.186C129.865 254.755 129.807 255.336 129.754 255.93C129.742 256.064 129.732 256.204 129.721 256.34C129.676 256.833 129.637 257.331 129.601 257.84C129.583 258.072 129.569 258.311 129.553 258.548C129.525 258.973 129.497 259.402 129.472 259.838C129.457 260.101 129.443 260.369 129.43 260.636C129.408 261.06 129.388 261.49 129.369 261.925C129.358 262.203 129.346 262.483 129.336 262.766C129.319 263.21 129.305 263.661 129.291 264.115C129.284 264.395 129.275 264.672 129.269 264.956C129.257 265.455 129.248 265.964 129.24 266.475C129.237 266.723 129.231 266.963 129.228 267.212C129.22 267.976 129.214 268.75 129.214 269.541C129.214 270.3 129.22 271.043 129.228 271.778C129.23 272.001 129.233 272.22 129.237 272.441C129.244 272.971 129.254 273.496 129.266 274.014C129.271 274.234 129.276 274.456 129.281 274.674C129.298 275.308 129.318 275.933 129.341 276.55C129.344 276.617 129.346 276.686 129.348 276.753V276.799C129.371 277.382 129.4 277.949 129.429 278.514C129.436 278.657 129.441 278.803 129.449 278.947C129.487 279.662 129.531 280.363 129.579 281.049C129.592 281.233 129.608 281.408 129.624 281.591C129.661 282.086 129.698 282.582 129.74 283.062C129.763 283.313 129.789 283.552 129.812 283.798C129.85 284.196 129.887 284.598 129.928 284.985C129.957 285.253 129.99 285.507 130.02 285.77C130.062 286.123 130.101 286.481 130.146 286.825C130.18 287.089 130.218 287.34 130.253 287.598C130.297 287.925 130.342 288.258 130.391 288.574C130.43 288.831 130.474 289.077 130.515 289.328C130.565 289.633 130.614 289.942 130.666 290.236C130.71 290.484 130.758 290.718 130.803 290.959C130.849 291.199 130.895 291.457 130.944 291.696C130.954 291.745 130.965 291.792 130.975 291.841C130.993 291.927 131.012 292.012 131.03 292.098C131.115 292.494 131.202 292.882 131.292 293.26C131.311 293.339 131.329 293.419 131.349 293.497C131.452 293.918 131.558 294.327 131.669 294.725C131.693 294.814 131.718 294.9 131.744 294.988C131.846 295.35 131.952 295.703 132.062 296.046C132.076 296.092 132.09 296.14 132.107 296.185C132.227 296.556 132.352 296.915 132.481 297.264C132.51 297.347 132.541 297.426 132.569 297.506C132.703 297.855 132.836 298.196 132.975 298.521C133.008 298.598 133.042 298.674 133.075 298.75C133.147 298.913 133.225 299.066 133.3 299.224C133.368 299.369 133.433 299.516 133.505 299.657C133.606 299.858 133.713 300.049 133.817 300.242C133.886 300.366 133.952 300.498 134.023 300.62C134.143 300.827 134.27 301.026 134.396 301.225C134.458 301.322 134.516 301.424 134.579 301.519C134.769 301.804 134.965 302.079 135.167 302.344L135.176 302.356C135.38 302.622 135.591 302.877 135.808 303.12C135.881 303.203 135.957 303.277 136.03 303.357C136.178 303.515 136.325 303.674 136.478 303.822C136.57 303.911 136.666 303.993 136.76 304.078C136.901 304.208 137.042 304.338 137.188 304.459C137.291 304.545 137.399 304.624 137.506 304.707C137.62 304.796 137.731 304.89 137.849 304.974C137.873 304.991 137.9 305.005 137.924 305.023C138.187 305.208 138.457 305.383 138.733 305.545C138.761 305.562 138.787 305.581 138.816 305.597C139.121 305.774 139.438 305.934 139.758 306.083C139.78 306.093 139.803 306.106 139.823 306.116C139.995 306.194 140.173 306.262 140.35 306.332C140.433 306.365 140.514 306.403 140.598 306.434C140.883 306.54 141.174 306.637 141.471 306.723L141.486 306.727C141.53 306.739 141.575 306.748 141.619 306.76C141.874 306.831 142.133 306.896 142.396 306.951C142.501 306.974 142.61 306.993 142.717 307.012C142.864 307.039 143.009 307.071 143.161 307.094C143.218 307.103 143.278 307.107 143.335 307.116C143.479 307.136 143.627 307.152 143.774 307.169C143.96 307.191 144.15 307.21 144.343 307.226Z" fill="#9EBCEA"/>
<path d="M205.545 280.078C205.595 279.409 205.634 278.723 205.674 278.04C205.701 277.589 205.733 277.146 205.755 276.688C205.792 275.918 205.816 275.128 205.841 274.339C205.853 273.95 205.872 273.571 205.881 273.178C205.909 271.986 205.924 270.775 205.926 269.544C205.926 268.485 205.912 267.443 205.889 266.413C205.881 266.091 205.87 265.775 205.861 265.456C205.848 265.008 205.839 264.555 205.821 264.112C205.809 263.805 205.791 263.505 205.777 263.203C205.766 262.971 205.755 262.738 205.743 262.506C205.693 261.551 205.635 260.607 205.565 259.676C205.556 259.552 205.544 259.436 205.534 259.315C205.468 258.485 205.393 257.666 205.309 256.859C205.286 256.641 205.264 256.423 205.24 256.207C205.142 255.315 205.036 254.431 204.917 253.568C204.9 253.441 204.88 253.318 204.862 253.192C204.754 252.426 204.637 251.671 204.511 250.928C204.478 250.727 204.444 250.526 204.41 250.326C204.274 249.55 204.132 248.782 203.977 248.03C203.966 247.976 203.954 247.923 203.943 247.87C203.918 247.753 203.892 247.639 203.867 247.522C203.714 246.799 203.552 246.088 203.381 245.387C203.342 245.228 203.305 245.067 203.265 244.91C203.074 244.145 202.872 243.394 202.66 242.656C202.616 242.505 202.571 242.357 202.527 242.208C202.33 241.542 202.125 240.886 201.911 240.241C201.876 240.135 201.842 240.026 201.807 239.92C201.567 239.212 201.317 238.518 201.055 237.838C200.996 237.683 200.935 237.53 200.877 237.376C200.615 236.707 200.344 236.048 200.062 235.406C200.053 235.384 200.044 235.364 200.035 235.342C200.032 235.335 200.03 235.328 200.027 235.322C199.839 234.898 199.638 234.493 199.441 234.083C199.297 233.781 199.161 233.47 199.013 233.175C198.791 232.735 198.556 232.314 198.324 231.887C198.185 231.631 198.053 231.365 197.91 231.113C197.643 230.645 197.362 230.196 197.082 229.744C196.961 229.55 196.848 229.347 196.726 229.156C196.318 228.521 195.896 227.903 195.46 227.302C195.072 226.765 194.669 226.252 194.259 225.746C194.165 225.63 194.071 225.515 193.977 225.4C193.57 224.909 193.155 224.429 192.728 223.967C192.672 223.907 192.615 223.85 192.559 223.791C192.167 223.373 191.767 222.967 191.359 222.575C191.262 222.481 191.166 222.386 191.067 222.294C190.618 221.871 190.158 221.462 189.689 221.067C189.6 220.99 189.506 220.917 189.414 220.842C188.991 220.494 188.559 220.157 188.12 219.831C188.031 219.766 187.946 219.698 187.857 219.634C187.812 219.6 187.768 219.564 187.72 219.531C187.25 219.194 186.772 218.874 186.285 218.563C186.165 218.486 186.041 218.415 185.92 218.34C185.498 218.078 185.07 217.826 184.635 217.582C184.457 217.483 184.279 217.386 184.101 217.291C183.681 217.066 183.254 216.85 182.821 216.643C182.667 216.569 182.515 216.491 182.359 216.42C182.296 216.391 182.236 216.358 182.172 216.33C181.683 216.107 181.18 215.899 180.675 215.697C180.561 215.652 180.446 215.608 180.332 215.564C179.738 215.335 179.136 215.117 178.522 214.917C178.462 214.898 178.399 214.88 178.339 214.86C178.017 214.758 177.696 214.654 177.368 214.561C177.084 214.478 176.795 214.403 176.507 214.327C176.428 214.306 176.35 214.283 176.271 214.263C175.637 214.098 174.99 213.952 174.334 213.817C174.214 213.793 174.093 213.767 173.972 213.744C173.416 213.634 172.855 213.531 172.283 213.442C172.191 213.428 172.098 213.418 172.006 213.404C171.868 213.383 171.729 213.366 171.591 213.347C170.967 213.259 170.335 213.184 169.695 213.12C169.603 213.111 169.513 213.1 169.421 213.092C168.719 213.027 168.005 212.979 167.283 212.943C167.12 212.935 166.955 212.928 166.791 212.921C166.59 212.914 166.391 212.901 166.191 212.895C165.646 212.879 165.095 212.871 164.539 212.871H145.628C146.39 212.871 147.14 212.892 147.88 212.921C148.044 212.928 148.209 212.935 148.373 212.943C149.094 212.979 149.808 213.026 150.51 213.092C150.602 213.1 150.692 213.111 150.784 213.12C151.425 213.183 152.057 213.259 152.68 213.347C152.818 213.366 152.957 213.383 153.095 213.404C153.76 213.503 154.415 213.616 155.061 213.744C155.182 213.767 155.302 213.793 155.422 213.817C156.078 213.952 156.725 214.099 157.36 214.263C157.438 214.283 157.515 214.304 157.592 214.326C158.215 214.491 158.826 214.67 159.428 214.861C159.488 214.88 159.55 214.898 159.61 214.917C160.224 215.117 160.826 215.335 161.42 215.564C161.534 215.608 161.648 215.652 161.762 215.697C162.333 215.925 162.895 216.165 163.447 216.42C163.603 216.491 163.755 216.569 163.909 216.643C164.342 216.851 164.769 217.067 165.19 217.291C165.368 217.387 165.545 217.483 165.723 217.58C166.159 217.824 166.589 218.077 167.013 218.34C167.133 218.414 167.256 218.485 167.375 218.561C167.91 218.903 168.435 219.261 168.949 219.635C169.038 219.698 169.122 219.765 169.21 219.83C169.649 220.156 170.08 220.493 170.504 220.842C170.596 220.917 170.689 220.99 170.78 221.067C171.249 221.461 171.708 221.87 172.158 222.294C172.256 222.386 172.352 222.481 172.449 222.574C172.858 222.968 173.258 223.374 173.65 223.791C173.705 223.85 173.763 223.907 173.818 223.967C174.245 224.429 174.66 224.909 175.067 225.4C175.162 225.514 175.256 225.63 175.35 225.747C175.759 226.252 176.161 226.767 176.55 227.302C176.986 227.902 177.408 228.52 177.816 229.156C177.949 229.362 178.074 229.585 178.204 229.796C178.471 230.231 178.744 230.664 179 231.112C179.162 231.398 179.311 231.699 179.47 231.991C179.682 232.383 179.9 232.769 180.103 233.173C180.264 233.495 180.414 233.834 180.569 234.161C180.755 234.554 180.948 234.939 181.125 235.342C181.136 235.365 181.145 235.389 181.155 235.413C181.437 236.053 181.706 236.71 181.967 237.376C182.028 237.53 182.089 237.685 182.148 237.841C182.409 238.522 182.66 239.213 182.899 239.921C182.935 240.028 182.969 240.138 183.005 240.245C183.219 240.889 183.423 241.543 183.619 242.208C183.663 242.359 183.708 242.507 183.752 242.659C183.964 243.396 184.166 244.147 184.357 244.911C184.397 245.069 184.435 245.23 184.473 245.39C184.644 246.09 184.806 246.801 184.959 247.523C184.984 247.639 185.01 247.754 185.035 247.871C185.202 248.676 185.356 249.496 185.502 250.327C185.536 250.527 185.57 250.73 185.604 250.931C185.728 251.674 185.845 252.427 185.953 253.189C185.972 253.317 185.992 253.442 186.009 253.571C186.128 254.435 186.236 255.314 186.332 256.206C186.356 256.424 186.377 256.644 186.401 256.864C186.484 257.669 186.559 258.484 186.626 259.31C186.636 259.434 186.648 259.556 186.657 259.68C186.728 260.607 186.787 261.551 186.835 262.506C186.848 262.739 186.858 262.974 186.869 263.208C186.904 263.948 186.93 264.699 186.952 265.456C186.961 265.776 186.973 266.093 186.981 266.416C187.003 267.448 187.018 268.487 187.018 269.547C187.018 270.78 187.003 271.991 186.973 273.18C186.964 273.573 186.945 273.953 186.933 274.341C186.908 275.13 186.885 275.92 186.847 276.691C186.825 277.149 186.793 277.592 186.766 278.043C186.726 278.726 186.688 279.412 186.637 280.08C186.601 280.552 186.556 281.01 186.516 281.475C186.461 282.102 186.407 282.731 186.343 283.345C186.295 283.814 186.237 284.272 186.182 284.733C186.113 285.323 186.044 285.914 185.965 286.491C185.903 286.953 185.832 287.403 185.765 287.857C185.68 288.413 185.596 288.972 185.504 289.514C185.428 289.963 185.345 290.402 185.263 290.842C185.165 291.371 185.065 291.898 184.958 292.414C184.869 292.848 184.773 293.273 184.678 293.697C184.565 294.201 184.449 294.701 184.328 295.193C184.209 295.673 184.087 296.147 183.96 296.616C183.878 296.92 183.797 297.224 183.712 297.525C183.558 298.061 183.396 298.588 183.232 299.109C183.155 299.355 183.081 299.605 183.002 299.848C182.754 300.601 182.497 301.342 182.225 302.062C182.217 302.082 182.209 302.1 182.202 302.12C181.935 302.821 181.659 303.505 181.373 304.172C181.288 304.369 181.198 304.559 181.112 304.752C180.901 305.228 180.685 305.697 180.462 306.156C180.352 306.383 180.24 306.606 180.126 306.828C179.911 307.254 179.69 307.671 179.463 308.081C179.349 308.288 179.235 308.499 179.117 308.701C178.851 309.165 178.577 309.617 178.297 310.061C178.216 310.189 178.139 310.322 178.057 310.449C177.674 311.04 177.28 311.613 176.874 312.17C170.11 321.391 159.695 326.002 145.627 326.002H164.536C178.603 326.002 189.018 321.391 195.782 312.17C196.169 311.642 196.545 311.098 196.91 310.537C196.929 310.508 196.946 310.478 196.965 310.449C197.047 310.322 197.124 310.189 197.205 310.061C197.485 309.617 197.759 309.165 198.026 308.701C198.143 308.497 198.257 308.288 198.371 308.081C198.597 307.671 198.818 307.253 199.034 306.828C199.147 306.606 199.26 306.383 199.37 306.156C199.593 305.698 199.809 305.229 200.02 304.752C200.106 304.558 200.196 304.369 200.28 304.172C200.308 304.109 200.336 304.05 200.363 303.987C200.62 303.381 200.868 302.762 201.106 302.129C201.115 302.106 201.124 302.084 201.133 302.061C201.404 301.34 201.662 300.6 201.91 299.846C201.989 299.606 202.062 299.357 202.139 299.113C202.303 298.59 202.466 298.062 202.62 297.523C202.705 297.226 202.785 296.923 202.867 296.621C202.946 296.329 203.03 296.045 203.106 295.749C203.15 295.568 203.191 295.377 203.236 295.193C203.358 294.702 203.473 294.202 203.586 293.698C203.681 293.275 203.776 292.85 203.866 292.418C203.973 291.9 204.073 291.371 204.172 290.841C204.253 290.402 204.336 289.965 204.411 289.519C204.504 288.974 204.589 288.416 204.673 287.857C204.741 287.403 204.811 286.956 204.873 286.495C204.952 285.917 205.021 285.327 205.09 284.737C205.135 284.38 205.182 284.035 205.221 283.675C205.233 283.569 205.24 283.455 205.251 283.348C205.315 282.734 205.369 282.106 205.424 281.478C205.464 281.008 205.509 280.55 205.545 280.078Z" fill="#9EBCEA"/>
<path d="M251.929 243.947C251.789 244.208 251.645 244.468 251.501 244.729C251.116 245.429 250.719 246.125 250.312 246.818C250.175 247.05 250.041 247.284 249.902 247.515C249.361 248.413 248.801 249.306 248.222 250.194C248.162 250.286 248.099 250.377 248.039 250.469C247.428 251.395 246.796 252.315 246.144 253.231L224.478 283.674H243.384L265.05 253.229C265.706 252.314 266.335 251.392 266.946 250.465C267.006 250.374 267.068 250.284 267.128 250.193C267.165 250.136 267.205 250.079 267.242 250.022C267.783 249.191 268.302 248.354 268.808 247.514C268.948 247.282 269.081 247.049 269.218 246.817C269.627 246.123 270.023 245.426 270.408 244.726C270.551 244.466 270.695 244.207 270.835 243.946C271.324 243.037 271.797 242.123 272.244 241.202H253.338C252.891 242.124 252.417 243.037 251.929 243.947Z" fill="#9EBCEA"/>
<path d="M310.485 283.675H296.255V214.594H277.347V283.675H291.577V301.721H277.347V324.497H296.255V301.721H310.485V283.675Z" fill="#9EBCEA"/>
<path d="M74.8627 283.674H89.0865V301.718H74.8627V324.494H50.4473V301.721H0V285.556L51.8217 214.593H74.8627V283.674ZM50.8466 251.502C51.1196 245.59 51.3355 242.157 51.4944 241.204H50.8466C48.8094 245.39 46.4034 249.413 43.6531 253.231L21.9868 283.674H50.4473V265.032C50.4473 261.93 50.5807 257.42 50.8475 251.502" fill="#DEE8F5"/>
<path d="M176.547 227.296C183.529 236.919 187.019 251.001 187.017 269.542C187.017 288.737 183.636 302.944 176.874 312.166C170.112 321.387 159.697 325.998 145.628 325.998C131.992 325.998 121.71 321.236 114.782 311.711C107.855 302.187 104.393 288.13 104.396 269.542C104.396 250.151 107.763 235.857 114.497 226.66C121.236 217.466 131.613 212.868 145.627 212.865C159.258 212.865 169.565 217.676 176.547 227.296ZM158.236 298.41C160.827 292.498 162.121 282.875 162.117 269.542C162.117 256.063 160.811 246.379 158.199 240.489C155.587 234.599 151.396 231.656 145.628 231.66C139.749 231.66 135.544 234.603 133.015 240.489C130.478 246.38 129.21 256.064 129.212 269.542C129.212 283.027 130.466 292.688 132.973 298.523C135.48 304.358 139.698 307.276 145.628 307.277C151.447 307.277 155.65 304.321 158.236 298.409" fill="#DEE8F5"/>
<path d="M277.347 283.674H291.575V301.718H277.347V324.494H252.932V301.721H202.485V285.556L254.307 214.593H277.347V283.674ZM253.338 251.5C253.605 245.589 253.821 242.156 253.986 241.202H253.338C251.296 245.386 248.89 249.408 246.144 253.229L224.478 283.674H252.934V265.032C252.934 261.93 253.069 257.42 253.34 251.502" fill="#DEE8F5"/>
</g>
<defs>
<clipPath id="clip0_122_205">
<rect width="458" height="326" fill="white"/>
</clipPath>
</defs>
</svg>
