<?xml version="1.0" encoding="UTF-8" standalone="no"?>
<!DOCTYPE svg PUBLIC "-//W3C//DTD SVG 1.1//EN" "http://www.w3.org/Graphics/SVG/1.1/DTD/svg11.dtd">
<svg version="1.1" xmlns="http://www.w3.org/2000/svg" xmlns:xlink="http://www.w3.org/1999/xlink" preserveAspectRatio="xMidYMid meet" viewBox="0 0 100 75" width="100" height="75"><defs><path d="M0 0L100 0L100 75L0 75L0 0Z" id="c18sdGuG7o"></path><path d="M3.37 4.74L26.66 4.74L26.66 21.39L3.37 21.39L3.37 4.74Z" id="d2JmEyl1pO"></path><path d="M26.51 4.75L49.8 4.75L49.8 21.4L26.51 21.4L26.51 4.75Z" id="aHxPy3U2p"></path><path d="M49.94 4.69L73.23 4.69L73.23 21.33L49.94 21.33L49.94 4.69Z" id="hzJJ7s7Y"></path><path d="M3.35 21.2L26.64 21.2L26.64 37.85L3.35 37.85L3.35 21.2Z" id="d7bIhMSyi5"></path><path d="M3.37 37.51L26.66 37.51L26.66 54.16L3.37 54.16L3.37 37.51Z" id="a2u3utINtX"></path><path d="M26.5 21.2L49.79 21.2L49.79 37.85L26.5 37.85L26.5 21.2Z" id="bkkeIY25G"></path><path d="M49.79 21.2L73.09 21.2L73.09 37.85L49.79 37.85L49.79 21.2Z" id="ab6UOqWwh"></path><path d="M26.52 37.68L49.81 37.68L49.81 54.33L26.52 54.33L26.52 37.68Z" id="aDCRa0Hdm"></path><path d="M49.83 37.68L73.12 37.68L73.12 54.33L49.83 54.33L49.83 37.68Z" id="aJAu4GGVU"></path><path d="M3.37 54.36L26.66 54.36L26.66 71.01L3.37 71.01L3.37 54.36Z" id="e1lzRpvDPD"></path><path d="M26.44 54.46L49.73 54.46L49.73 71.11L26.44 71.11L26.44 54.46Z" id="brTJfvIo5"></path><path d="M49.84 54.48L73.13 54.48L73.13 71.12L49.84 71.12L49.84 54.48Z" id="a4p9ZxMuxs"></path><path d="M73.17 4.74L96.46 4.74L96.46 21.39L73.17 21.39L73.17 4.74Z" id="ahDa2UxoZ"></path><path d="M73.09 21.16L96.38 21.16L96.38 37.8L73.09 37.8L73.09 21.16Z" id="b9Zm8ST31L"></path><path d="M73.08 54.47L96.38 54.47L96.38 71.12L73.08 71.12L73.08 54.47Z" id="dAhsrc68q"></path><path d="M73.09 37.67L96.38 37.67L96.38 54.32L73.09 54.32L73.09 37.67Z" id="dynuHwPB1"></path></defs><g><g><g><use xlink:href="#c18sdGuG7o" opacity="1" fill="#928b92" fill-opacity="1"></use></g><g><use xlink:href="#d2JmEyl1pO" opacity="1" fill="#484248" fill-opacity="1"></use><g><use xlink:href="#d2JmEyl1pO" opacity="1" fill-opacity="0" stroke="#ffffff" stroke-width="1" stroke-opacity="1"></use></g></g><g><use xlink:href="#aHxPy3U2p" opacity="1" fill="#484248" fill-opacity="1"></use><g><use xlink:href="#aHxPy3U2p" opacity="1" fill-opacity="0" stroke="#ffffff" stroke-width="1" stroke-opacity="1"></use></g></g><g><use xlink:href="#hzJJ7s7Y" opacity="1" fill="#484248" fill-opacity="1"></use><g><use xlink:href="#hzJJ7s7Y" opacity="1" fill-opacity="0" stroke="#ffffff" stroke-width="1" stroke-opacity="1"></use></g></g><g><use xlink:href="#d7bIhMSyi5" opacity="1" fill="#484248" fill-opacity="1"></use><g><use xlink:href="#d7bIhMSyi5" opacity="1" fill-opacity="0" stroke="#ffffff" stroke-width="1" stroke-opacity="1"></use></g></g><g><use xlink:href="#a2u3utINtX" opacity="1" fill="#484248" fill-opacity="1"></use><g><use xlink:href="#a2u3utINtX" opacity="1" fill-opacity="0" stroke="#ffffff" stroke-width="1" stroke-opacity="1"></use></g></g><g><use xlink:href="#bkkeIY25G" opacity="1" fill="#484248" fill-opacity="1"></use><g><use xlink:href="#bkkeIY25G" opacity="1" fill-opacity="0" stroke="#ffffff" stroke-width="1" stroke-opacity="1"></use></g></g><g><use xlink:href="#ab6UOqWwh" opacity="1" fill="#484248" fill-opacity="1"></use><g><use xlink:href="#ab6UOqWwh" opacity="1" fill-opacity="0" stroke="#ffffff" stroke-width="1" stroke-opacity="1"></use></g></g><g><use xlink:href="#aDCRa0Hdm" opacity="1" fill="#484248" fill-opacity="1"></use><g><use xlink:href="#aDCRa0Hdm" opacity="1" fill-opacity="0" stroke="#ffffff" stroke-width="1" stroke-opacity="1"></use></g></g><g><use xlink:href="#aJAu4GGVU" opacity="1" fill="#484248" fill-opacity="1"></use><g><use xlink:href="#aJAu4GGVU" opacity="1" fill-opacity="0" stroke="#ffffff" stroke-width="1" stroke-opacity="1"></use></g></g><g><use xlink:href="#e1lzRpvDPD" opacity="1" fill="#484248" fill-opacity="1"></use><g><use xlink:href="#e1lzRpvDPD" opacity="1" fill-opacity="0" stroke="#ffffff" stroke-width="1" stroke-opacity="1"></use></g></g><g><use xlink:href="#brTJfvIo5" opacity="1" fill="#484248" fill-opacity="1"></use><g><use xlink:href="#brTJfvIo5" opacity="1" fill-opacity="0" stroke="#ffffff" stroke-width="1" stroke-opacity="1"></use></g></g><g><use xlink:href="#a4p9ZxMuxs" opacity="1" fill="#484248" fill-opacity="1"></use><g><use xlink:href="#a4p9ZxMuxs" opacity="1" fill-opacity="0" stroke="#ffffff" stroke-width="1" stroke-opacity="1"></use></g></g><g><use xlink:href="#ahDa2UxoZ" opacity="1" fill="#484248" fill-opacity="1"></use><g><use xlink:href="#ahDa2UxoZ" opacity="1" fill-opacity="0" stroke="#ffffff" stroke-width="1" stroke-opacity="1"></use></g></g><g><use xlink:href="#b9Zm8ST31L" opacity="1" fill="#484248" fill-opacity="1"></use><g><use xlink:href="#b9Zm8ST31L" opacity="1" fill-opacity="0" stroke="#ffffff" stroke-width="1" stroke-opacity="1"></use></g></g><g><use xlink:href="#dAhsrc68q" opacity="1" fill="#484248" fill-opacity="1"></use><g><use xlink:href="#dAhsrc68q" opacity="1" fill-opacity="0" stroke="#ffffff" stroke-width="1" stroke-opacity="1"></use></g></g><g><use xlink:href="#dynuHwPB1" opacity="1" fill="#484248" fill-opacity="1"></use><g><use xlink:href="#dynuHwPB1" opacity="1" fill-opacity="0" stroke="#ffffff" stroke-width="1" stroke-opacity="1"></use></g></g></g></g></svg>