<?xml version="1.0" encoding="UTF-8" standalone="no"?>
<!DOCTYPE svg PUBLIC "-//W3C//DTD SVG 1.1//EN" "http://www.w3.org/Graphics/SVG/1.1/DTD/svg11.dtd">
<svg version="1.1" xmlns="http://www.w3.org/2000/svg" xmlns:xlink="http://www.w3.org/1999/xlink" preserveAspectRatio="xMidYMid meet" viewBox="0 0 100 75" width="100" height="75"><defs><path d="M0 0L100 0L100 75L0 75L0 0Z" id="c18sdGuG7o"></path><path d="M3.33 3.75L34.54 3.75L34.54 26.35L3.33 26.35L3.33 3.75Z" id="d7UKzEGGPY"></path><path d="M34.38 3.77L65.58 3.77L65.58 26.37L34.38 26.37L34.38 3.77Z" id="b2uKtXbpm"></path><path d="M65.67 3.79L96.88 3.79L96.88 26.39L65.67 26.39L65.67 3.79Z" id="c9gLtyr36"></path><path d="M3.35 26.1L34.56 26.1L34.56 48.69L3.35 48.69L3.35 26.1Z" id="c6JczAJzii"></path><path d="M3.35 48.38L34.56 48.38L34.56 70.98L3.35 70.98L3.35 48.38Z" id="a4F2lKut"></path><path d="M34.37 26.1L65.57 26.1L65.57 48.69L34.37 48.69L34.37 26.1Z" id="mv5D7SnSl"></path><path d="M65.57 26.1L96.78 26.1L96.78 48.69L65.57 48.69L65.57 26.1Z" id="a3Fn7SF6nV"></path><path d="M34.4 48.47L65.6 48.47L65.6 71.06L34.4 71.06L34.4 48.47Z" id="a18cz7OuoG"></path><path d="M65.63 48.47L96.83 48.47L96.83 71.06L65.63 71.06L65.63 48.47Z" id="c2N5IxDLPT"></path></defs><g><g><g><use xlink:href="#c18sdGuG7o" opacity="1" fill="#928b92" fill-opacity="1"></use></g><g><use xlink:href="#d7UKzEGGPY" opacity="1" fill="#484248" fill-opacity="1"></use><g><use xlink:href="#d7UKzEGGPY" opacity="1" fill-opacity="0" stroke="#ffffff" stroke-width="1" stroke-opacity="1"></use></g></g><g><use xlink:href="#b2uKtXbpm" opacity="1" fill="#484248" fill-opacity="1"></use><g><use xlink:href="#b2uKtXbpm" opacity="1" fill-opacity="0" stroke="#ffffff" stroke-width="1" stroke-opacity="1"></use></g></g><g><use xlink:href="#c9gLtyr36" opacity="1" fill="#484248" fill-opacity="1"></use><g><use xlink:href="#c9gLtyr36" opacity="1" fill-opacity="0" stroke="#ffffff" stroke-width="1" stroke-opacity="1"></use></g></g><g><use xlink:href="#c6JczAJzii" opacity="1" fill="#484248" fill-opacity="1"></use><g><use xlink:href="#c6JczAJzii" opacity="1" fill-opacity="0" stroke="#ffffff" stroke-width="1" stroke-opacity="1"></use></g></g><g><use xlink:href="#a4F2lKut" opacity="1" fill="#484248" fill-opacity="1"></use><g><use xlink:href="#a4F2lKut" opacity="1" fill-opacity="0" stroke="#ffffff" stroke-width="1" stroke-opacity="1"></use></g></g><g><use xlink:href="#mv5D7SnSl" opacity="1" fill="#484248" fill-opacity="1"></use><g><use xlink:href="#mv5D7SnSl" opacity="1" fill-opacity="0" stroke="#ffffff" stroke-width="1" stroke-opacity="1"></use></g></g><g><use xlink:href="#a3Fn7SF6nV" opacity="1" fill="#484248" fill-opacity="1"></use><g><use xlink:href="#a3Fn7SF6nV" opacity="1" fill-opacity="0" stroke="#ffffff" stroke-width="1" stroke-opacity="1"></use></g></g><g><use xlink:href="#a18cz7OuoG" opacity="1" fill="#484248" fill-opacity="1"></use><g><use xlink:href="#a18cz7OuoG" opacity="1" fill-opacity="0" stroke="#ffffff" stroke-width="1" stroke-opacity="1"></use></g></g><g><use xlink:href="#c2N5IxDLPT" opacity="1" fill="#484248" fill-opacity="1"></use><g><use xlink:href="#c2N5IxDLPT" opacity="1" fill-opacity="0" stroke="#ffffff" stroke-width="1" stroke-opacity="1"></use></g></g></g></g></svg>