<?xml version="1.0" encoding="UTF-8" standalone="no"?>
<!DOCTYPE svg PUBLIC "-//W3C//DTD SVG 1.1//EN" "http://www.w3.org/Graphics/SVG/1.1/DTD/svg11.dtd">
<svg version="1.1" xmlns="http://www.w3.org/2000/svg" xmlns:xlink="http://www.w3.org/1999/xlink" preserveAspectRatio="xMidYMid meet" viewBox="0 0 100 75" width="100" height="75"><defs><path d="M0 0L100 0L100 75L0 75L0 0Z" id="c18sdGuG7o"></path><path d="M1.58 37.22L15.32 37.22L15.32 48.78L1.58 48.78L1.58 37.22Z" id="b4eubKcNPO"></path><path d="M15.18 37.29L28.92 37.29L28.92 48.85L15.18 48.85L15.18 37.29Z" id="cwHJM0Yrl"></path><path d="M28.91 37.35L42.65 37.35L42.65 48.92L28.91 48.92L28.91 37.35Z" id="hN7Z6UtrG"></path><path d="M42.69 37.3L56.42 37.3L56.42 48.86L42.69 48.86L42.69 37.3Z" id="aDDJWx7DJ"></path><path d="M56.41 37.29L70.15 37.29L70.15 48.85L56.41 48.85L56.41 37.29Z" id="a4TkfjjJ1j"></path><path d="M56.4 48.83L70.13 48.83L70.13 60.39L56.4 60.39L56.4 48.83Z" id="bagAh2XJp"></path><path d="M42.58 48.89L56.32 48.89L56.32 60.45L42.58 60.45L42.58 48.89Z" id="g2MHknQXe"></path><path d="M28.91 48.89L42.65 48.89L42.65 60.45L28.91 60.45L28.91 48.89Z" id="bBgHyCyeG"></path><path d="M15.15 48.89L28.88 48.89L28.88 60.45L15.15 60.45L15.15 48.89Z" id="b31fxXNmRx"></path><path d="M1.56 48.89L15.3 48.89L15.3 60.45L1.56 60.45L1.56 48.89Z" id="cNelIX7GP"></path><path d="M56.41 60.36L70.15 60.36L70.15 71.92L56.41 71.92L56.41 60.36Z" id="ckQCCHlvP"></path><path d="M42.58 60.32L56.32 60.32L56.32 71.88L42.58 71.88L42.58 60.32Z" id="f18BJzgSwe"></path><path d="M28.85 60.39L42.58 60.39L42.58 71.95L28.85 71.95L28.85 60.39Z" id="baulELOSL"></path><path d="M15.21 60.46L28.95 60.46L28.95 72.02L15.21 72.02L15.21 60.46Z" id="a3yNTGKwK"></path><path d="M1.56 60.44L15.3 60.44L15.3 72.01L1.56 72.01L1.56 60.44Z" id="di0k3v9YE"></path><path d="M70.3 60.29L84.03 60.29L84.03 71.85L70.3 71.85L70.3 60.29Z" id="dguGhzNu7"></path><path d="M70.3 48.83L84.03 48.83L84.03 60.39L70.3 60.39L70.3 48.83Z" id="d1TpKmHkWc"></path><path d="M70.3 37.27L84.03 37.27L84.03 48.83L70.3 48.83L70.3 37.27Z" id="baTlJjGpc"></path><path d="M84.28 60.27L98.02 60.27L98.02 71.83L84.28 71.83L84.28 60.27Z" id="bGMP14L7"></path><path d="M84.28 48.81L98.02 48.81L98.02 60.37L84.28 60.37L84.28 48.81Z" id="f3nJtWTT0d"></path><path d="M84.28 37.25L98.02 37.25L98.02 48.81L84.28 48.81L84.28 37.25Z" id="b1qnYwapnK"></path><path d="M25.29 2.34L73.23 2.34L73.23 36.74L25.29 36.74L25.29 2.34Z" id="aTOzdMatM"></path></defs><g><g><g><use xlink:href="#c18sdGuG7o" opacity="1" fill="#928b92" fill-opacity="1"></use></g><g><use xlink:href="#b4eubKcNPO" opacity="1" fill="#484248" fill-opacity="1"></use><g><use xlink:href="#b4eubKcNPO" opacity="1" fill-opacity="0" stroke="#ffffff" stroke-width="1" stroke-opacity="1"></use></g></g><g><use xlink:href="#cwHJM0Yrl" opacity="1" fill="#484248" fill-opacity="1"></use><g><use xlink:href="#cwHJM0Yrl" opacity="1" fill-opacity="0" stroke="#ffffff" stroke-width="1" stroke-opacity="1"></use></g></g><g><use xlink:href="#hN7Z6UtrG" opacity="1" fill="#484248" fill-opacity="1"></use><g><use xlink:href="#hN7Z6UtrG" opacity="1" fill-opacity="0" stroke="#ffffff" stroke-width="1" stroke-opacity="1"></use></g></g><g><use xlink:href="#aDDJWx7DJ" opacity="1" fill="#484248" fill-opacity="1"></use><g><use xlink:href="#aDDJWx7DJ" opacity="1" fill-opacity="0" stroke="#ffffff" stroke-width="1" stroke-opacity="1"></use></g></g><g><use xlink:href="#a4TkfjjJ1j" opacity="1" fill="#484248" fill-opacity="1"></use><g><use xlink:href="#a4TkfjjJ1j" opacity="1" fill-opacity="0" stroke="#ffffff" stroke-width="1" stroke-opacity="1"></use></g></g><g><use xlink:href="#bagAh2XJp" opacity="1" fill="#484248" fill-opacity="1"></use><g><use xlink:href="#bagAh2XJp" opacity="1" fill-opacity="0" stroke="#ffffff" stroke-width="1" stroke-opacity="1"></use></g></g><g><use xlink:href="#g2MHknQXe" opacity="1" fill="#484248" fill-opacity="1"></use><g><use xlink:href="#g2MHknQXe" opacity="1" fill-opacity="0" stroke="#ffffff" stroke-width="1" stroke-opacity="1"></use></g></g><g><use xlink:href="#bBgHyCyeG" opacity="1" fill="#484248" fill-opacity="1"></use><g><use xlink:href="#bBgHyCyeG" opacity="1" fill-opacity="0" stroke="#ffffff" stroke-width="1" stroke-opacity="1"></use></g></g><g><use xlink:href="#b31fxXNmRx" opacity="1" fill="#484248" fill-opacity="1"></use><g><use xlink:href="#b31fxXNmRx" opacity="1" fill-opacity="0" stroke="#ffffff" stroke-width="1" stroke-opacity="1"></use></g></g><g><use xlink:href="#cNelIX7GP" opacity="1" fill="#484248" fill-opacity="1"></use><g><use xlink:href="#cNelIX7GP" opacity="1" fill-opacity="0" stroke="#ffffff" stroke-width="1" stroke-opacity="1"></use></g></g><g><use xlink:href="#ckQCCHlvP" opacity="1" fill="#484248" fill-opacity="1"></use><g><use xlink:href="#ckQCCHlvP" opacity="1" fill-opacity="0" stroke="#ffffff" stroke-width="1" stroke-opacity="1"></use></g></g><g><use xlink:href="#f18BJzgSwe" opacity="1" fill="#484248" fill-opacity="1"></use><g><use xlink:href="#f18BJzgSwe" opacity="1" fill-opacity="0" stroke="#ffffff" stroke-width="1" stroke-opacity="1"></use></g></g><g><use xlink:href="#baulELOSL" opacity="1" fill="#484248" fill-opacity="1"></use><g><use xlink:href="#baulELOSL" opacity="1" fill-opacity="0" stroke="#ffffff" stroke-width="1" stroke-opacity="1"></use></g></g><g><use xlink:href="#a3yNTGKwK" opacity="1" fill="#484248" fill-opacity="1"></use><g><use xlink:href="#a3yNTGKwK" opacity="1" fill-opacity="0" stroke="#ffffff" stroke-width="1" stroke-opacity="1"></use></g></g><g><use xlink:href="#di0k3v9YE" opacity="1" fill="#484248" fill-opacity="1"></use><g><use xlink:href="#di0k3v9YE" opacity="1" fill-opacity="0" stroke="#ffffff" stroke-width="1" stroke-opacity="1"></use></g></g><g><use xlink:href="#dguGhzNu7" opacity="1" fill="#484248" fill-opacity="1"></use><g><use xlink:href="#dguGhzNu7" opacity="1" fill-opacity="0" stroke="#ffffff" stroke-width="1" stroke-opacity="1"></use></g></g><g><use xlink:href="#d1TpKmHkWc" opacity="1" fill="#484248" fill-opacity="1"></use><g><use xlink:href="#d1TpKmHkWc" opacity="1" fill-opacity="0" stroke="#ffffff" stroke-width="1" stroke-opacity="1"></use></g></g><g><use xlink:href="#baTlJjGpc" opacity="1" fill="#484248" fill-opacity="1"></use><g><use xlink:href="#baTlJjGpc" opacity="1" fill-opacity="0" stroke="#ffffff" stroke-width="1" stroke-opacity="1"></use></g></g><g><use xlink:href="#bGMP14L7" opacity="1" fill="#484248" fill-opacity="1"></use><g><use xlink:href="#bGMP14L7" opacity="1" fill-opacity="0" stroke="#ffffff" stroke-width="1" stroke-opacity="1"></use></g></g><g><use xlink:href="#f3nJtWTT0d" opacity="1" fill="#484248" fill-opacity="1"></use><g><use xlink:href="#f3nJtWTT0d" opacity="1" fill-opacity="0" stroke="#ffffff" stroke-width="1" stroke-opacity="1"></use></g></g><g><use xlink:href="#b1qnYwapnK" opacity="1" fill="#484248" fill-opacity="1"></use><g><use xlink:href="#b1qnYwapnK" opacity="1" fill-opacity="0" stroke="#ffffff" stroke-width="1" stroke-opacity="1"></use></g></g><g><use xlink:href="#aTOzdMatM" opacity="1" fill="#484248" fill-opacity="1"></use><g><use xlink:href="#aTOzdMatM" opacity="1" fill-opacity="0" stroke="#ffffff" stroke-width="1" stroke-opacity="1"></use></g></g></g></g></svg>