<?xml version="1.0" encoding="UTF-8" standalone="no"?>
<!DOCTYPE svg PUBLIC "-//W3C//DTD SVG 1.1//EN" "http://www.w3.org/Graphics/SVG/1.1/DTD/svg11.dtd">
<svg version="1.1" xmlns="http://www.w3.org/2000/svg" xmlns:xlink="http://www.w3.org/1999/xlink" preserveAspectRatio="xMidYMid meet" viewBox="0 0 100 75" width="100" height="75"><defs><path d="M0 0L100 0L100 75L0 75L0 0Z" id="c18sdGuG7o"></path><path d="M1.59 2.77L20.95 2.77L20.95 16.49L1.59 16.49L1.59 2.77Z" id="b1p7bnmwnN"></path><path d="M20.82 2.78L40.17 2.78L40.17 16.5L20.82 16.5L20.82 2.78Z" id="a6P1nTIUeg"></path><path d="M40.29 2.73L59.65 2.73L59.65 16.44L40.29 16.44L40.29 2.73Z" id="aaVqBrw9R"></path><path d="M1.57 16.33L20.93 16.33L20.93 30.05L1.57 30.05L1.57 16.33Z" id="a5AO9fiono"></path><path d="M1.59 29.77L20.95 29.77L20.95 43.48L1.59 43.48L1.59 29.77Z" id="a2ofcnRC"></path><path d="M20.81 16.33L40.17 16.33L40.17 30.05L20.81 30.05L20.81 16.33Z" id="a5WbkroDQm"></path><path d="M40.17 16.33L59.53 16.33L59.53 30.05L40.17 30.05L40.17 16.33Z" id="d35B3KobhI"></path><path d="M20.83 29.91L40.19 29.91L40.19 43.62L20.83 43.62L20.83 29.91Z" id="a1L2WI5ELA"></path><path d="M40.2 29.91L59.56 29.91L59.56 43.62L40.2 43.62L40.2 29.91Z" id="aVZGdNM3f"></path><path d="M1.59 43.65L20.95 43.65L20.95 57.36L1.59 57.36L1.59 43.65Z" id="aW7lfch7w"></path><path d="M20.76 43.73L40.12 43.73L40.12 57.44L20.76 57.44L20.76 43.73Z" id="b4beNwzX33"></path><path d="M40.11 43.81L59.47 43.81L59.47 57.52L40.11 57.52L40.11 43.81Z" id="c1KL7Q4jvx"></path><path d="M59.6 2.69L78.95 2.69L78.95 16.41L59.6 16.41L59.6 2.69Z" id="ar3Bl8XxE"></path><path d="M59.53 16.3L78.89 16.3L78.89 30.01L59.53 30.01L59.53 16.3Z" id="epIwqITMM"></path><path d="M59.53 43.74L78.88 43.74L78.88 57.45L59.53 57.45L59.53 43.74Z" id="b1G56TuzmE"></path><path d="M59.53 29.9L78.88 29.9L78.88 43.62L59.53 43.62L59.53 29.9Z" id="b57UjqgDq7"></path><path d="M78.87 43.73L98.22 43.73L98.22 57.44L78.87 57.44L78.87 43.73Z" id="a1ownyTttN"></path><path d="M78.87 30.09L98.22 30.09L98.22 43.81L78.87 43.81L78.87 30.09Z" id="acJs1GKEQ"></path><path d="M78.87 16.41L98.22 16.41L98.22 30.13L78.87 30.13L78.87 16.41Z" id="a17pa3NZwo"></path><path d="M78.87 2.73L98.22 2.73L98.22 16.44L78.87 16.44L78.87 2.73Z" id="a6M1snSW35"></path><path d="M78.85 57.42L98.2 57.42L98.2 71.14L78.85 71.14L78.85 57.42Z" id="fmnYxLyQM"></path><path d="M59.42 57.49L78.78 57.49L78.78 71.2L59.42 71.2L59.42 57.49Z" id="c3vIkBY5nR"></path><path d="M40.11 57.49L59.47 57.49L59.47 71.2L40.11 71.2L40.11 57.49Z" id="b374wFlbe"></path><path d="M20.71 57.49L40.07 57.49L40.07 71.2L20.71 71.2L20.71 57.49Z" id="d1eAHcDZ62"></path><path d="M1.56 57.49L20.92 57.49L20.92 71.2L1.56 71.2L1.56 57.49Z" id="aAk2WnDd7"></path></defs><g><g><g><use xlink:href="#c18sdGuG7o" opacity="1" fill="#928b92" fill-opacity="1"></use></g><g><use xlink:href="#b1p7bnmwnN" opacity="1" fill="#484248" fill-opacity="1"></use><g><use xlink:href="#b1p7bnmwnN" opacity="1" fill-opacity="0" stroke="#ffffff" stroke-width="1" stroke-opacity="1"></use></g></g><g><use xlink:href="#a6P1nTIUeg" opacity="1" fill="#484248" fill-opacity="1"></use><g><use xlink:href="#a6P1nTIUeg" opacity="1" fill-opacity="0" stroke="#ffffff" stroke-width="1" stroke-opacity="1"></use></g></g><g><use xlink:href="#aaVqBrw9R" opacity="1" fill="#484248" fill-opacity="1"></use><g><use xlink:href="#aaVqBrw9R" opacity="1" fill-opacity="0" stroke="#ffffff" stroke-width="1" stroke-opacity="1"></use></g></g><g><use xlink:href="#a5AO9fiono" opacity="1" fill="#484248" fill-opacity="1"></use><g><use xlink:href="#a5AO9fiono" opacity="1" fill-opacity="0" stroke="#ffffff" stroke-width="1" stroke-opacity="1"></use></g></g><g><use xlink:href="#a2ofcnRC" opacity="1" fill="#484248" fill-opacity="1"></use><g><use xlink:href="#a2ofcnRC" opacity="1" fill-opacity="0" stroke="#ffffff" stroke-width="1" stroke-opacity="1"></use></g></g><g><use xlink:href="#a5WbkroDQm" opacity="1" fill="#484248" fill-opacity="1"></use><g><use xlink:href="#a5WbkroDQm" opacity="1" fill-opacity="0" stroke="#ffffff" stroke-width="1" stroke-opacity="1"></use></g></g><g><use xlink:href="#d35B3KobhI" opacity="1" fill="#484248" fill-opacity="1"></use><g><use xlink:href="#d35B3KobhI" opacity="1" fill-opacity="0" stroke="#ffffff" stroke-width="1" stroke-opacity="1"></use></g></g><g><use xlink:href="#a1L2WI5ELA" opacity="1" fill="#484248" fill-opacity="1"></use><g><use xlink:href="#a1L2WI5ELA" opacity="1" fill-opacity="0" stroke="#ffffff" stroke-width="1" stroke-opacity="1"></use></g></g><g><use xlink:href="#aVZGdNM3f" opacity="1" fill="#484248" fill-opacity="1"></use><g><use xlink:href="#aVZGdNM3f" opacity="1" fill-opacity="0" stroke="#ffffff" stroke-width="1" stroke-opacity="1"></use></g></g><g><use xlink:href="#aW7lfch7w" opacity="1" fill="#484248" fill-opacity="1"></use><g><use xlink:href="#aW7lfch7w" opacity="1" fill-opacity="0" stroke="#ffffff" stroke-width="1" stroke-opacity="1"></use></g></g><g><use xlink:href="#b4beNwzX33" opacity="1" fill="#484248" fill-opacity="1"></use><g><use xlink:href="#b4beNwzX33" opacity="1" fill-opacity="0" stroke="#ffffff" stroke-width="1" stroke-opacity="1"></use></g></g><g><use xlink:href="#c1KL7Q4jvx" opacity="1" fill="#484248" fill-opacity="1"></use><g><use xlink:href="#c1KL7Q4jvx" opacity="1" fill-opacity="0" stroke="#ffffff" stroke-width="1" stroke-opacity="1"></use></g></g><g><use xlink:href="#ar3Bl8XxE" opacity="1" fill="#484248" fill-opacity="1"></use><g><use xlink:href="#ar3Bl8XxE" opacity="1" fill-opacity="0" stroke="#ffffff" stroke-width="1" stroke-opacity="1"></use></g></g><g><use xlink:href="#epIwqITMM" opacity="1" fill="#484248" fill-opacity="1"></use><g><use xlink:href="#epIwqITMM" opacity="1" fill-opacity="0" stroke="#ffffff" stroke-width="1" stroke-opacity="1"></use></g></g><g><use xlink:href="#b1G56TuzmE" opacity="1" fill="#484248" fill-opacity="1"></use><g><use xlink:href="#b1G56TuzmE" opacity="1" fill-opacity="0" stroke="#ffffff" stroke-width="1" stroke-opacity="1"></use></g></g><g><use xlink:href="#b57UjqgDq7" opacity="1" fill="#484248" fill-opacity="1"></use><g><use xlink:href="#b57UjqgDq7" opacity="1" fill-opacity="0" stroke="#ffffff" stroke-width="1" stroke-opacity="1"></use></g></g><g><use xlink:href="#a1ownyTttN" opacity="1" fill="#484248" fill-opacity="1"></use><g><use xlink:href="#a1ownyTttN" opacity="1" fill-opacity="0" stroke="#ffffff" stroke-width="1" stroke-opacity="1"></use></g></g><g><use xlink:href="#acJs1GKEQ" opacity="1" fill="#484248" fill-opacity="1"></use><g><use xlink:href="#acJs1GKEQ" opacity="1" fill-opacity="0" stroke="#ffffff" stroke-width="1" stroke-opacity="1"></use></g></g><g><use xlink:href="#a17pa3NZwo" opacity="1" fill="#484248" fill-opacity="1"></use><g><use xlink:href="#a17pa3NZwo" opacity="1" fill-opacity="0" stroke="#ffffff" stroke-width="1" stroke-opacity="1"></use></g></g><g><use xlink:href="#a6M1snSW35" opacity="1" fill="#484248" fill-opacity="1"></use><g><use xlink:href="#a6M1snSW35" opacity="1" fill-opacity="0" stroke="#ffffff" stroke-width="1" stroke-opacity="1"></use></g></g><g><use xlink:href="#fmnYxLyQM" opacity="1" fill="#484248" fill-opacity="1"></use><g><use xlink:href="#fmnYxLyQM" opacity="1" fill-opacity="0" stroke="#ffffff" stroke-width="1" stroke-opacity="1"></use></g></g><g><use xlink:href="#c3vIkBY5nR" opacity="1" fill="#484248" fill-opacity="1"></use><g><use xlink:href="#c3vIkBY5nR" opacity="1" fill-opacity="0" stroke="#ffffff" stroke-width="1" stroke-opacity="1"></use></g></g><g><use xlink:href="#b374wFlbe" opacity="1" fill="#484248" fill-opacity="1"></use><g><use xlink:href="#b374wFlbe" opacity="1" fill-opacity="0" stroke="#ffffff" stroke-width="1" stroke-opacity="1"></use></g></g><g><use xlink:href="#d1eAHcDZ62" opacity="1" fill="#484248" fill-opacity="1"></use><g><use xlink:href="#d1eAHcDZ62" opacity="1" fill-opacity="0" stroke="#ffffff" stroke-width="1" stroke-opacity="1"></use></g></g><g><use xlink:href="#aAk2WnDd7" opacity="1" fill="#484248" fill-opacity="1"></use><g><use xlink:href="#aAk2WnDd7" opacity="1" fill-opacity="0" stroke="#ffffff" stroke-width="1" stroke-opacity="1"></use></g></g></g></g></svg>