<?xml version="1.0" encoding="UTF-8" standalone="no"?>
<!DOCTYPE svg PUBLIC "-//W3C//DTD SVG 1.1//EN" "http://www.w3.org/Graphics/SVG/1.1/DTD/svg11.dtd">
<svg version="1.1" xmlns="http://www.w3.org/2000/svg" xmlns:xlink="http://www.w3.org/1999/xlink" preserveAspectRatio="xMidYMid meet" viewBox="0 0 100 75" width="100" height="75"><defs><path d="M0 0L100 0L100 75L0 75L0 0Z" id="c18sdGuG7o"></path><path d="M1.58 2.76L15.32 2.76L15.32 14.32L1.58 14.32L1.58 2.76Z" id="b8qxxuTUl"></path><path d="M15.22 2.77L28.91 2.77L28.91 14.33L15.22 14.33L15.22 2.77Z" id="c7eY1Zb6Yw"></path><path d="M28.92 2.72L70.31 2.72L70.31 37.12L28.92 37.12L28.92 2.72Z" id="crQxcno3c"></path><path d="M1.57 14.19L15.3 14.19L15.3 25.75L1.57 25.75L1.57 14.19Z" id="gSWKYJrdX"></path><path d="M1.58 25.52L15.32 25.52L15.32 37.08L1.58 37.08L1.58 25.52Z" id="e4jm09WOp3"></path><path d="M15.22 14.19L28.95 14.19L28.95 25.75L15.22 25.75L15.22 14.19Z" id="gAzhcHoDw"></path><path d="M15.23 25.64L28.97 25.64L28.97 37.2L15.23 37.2L15.23 25.64Z" id="k8xvNVB1d"></path><path d="M1.58 37.22L15.32 37.22L15.32 48.78L1.58 48.78L1.58 37.22Z" id="b4eubKcNPO"></path><path d="M15.18 37.29L28.92 37.29L28.92 48.85L15.18 48.85L15.18 37.29Z" id="cwHJM0Yrl"></path><path d="M28.91 37.35L42.65 37.35L42.65 48.92L28.91 48.92L28.91 37.35Z" id="hN7Z6UtrG"></path><path d="M42.69 37.3L56.42 37.3L56.42 48.86L42.69 48.86L42.69 37.3Z" id="aDDJWx7DJ"></path><path d="M56.41 37.29L70.15 37.29L70.15 48.85L56.41 48.85L56.41 37.29Z" id="a4TkfjjJ1j"></path><path d="M56.4 48.83L70.13 48.83L70.13 60.39L56.4 60.39L56.4 48.83Z" id="bagAh2XJp"></path><path d="M42.58 48.89L56.32 48.89L56.32 60.45L42.58 60.45L42.58 48.89Z" id="g2MHknQXe"></path><path d="M28.91 48.89L42.65 48.89L42.65 60.45L28.91 60.45L28.91 48.89Z" id="bBgHyCyeG"></path><path d="M15.15 48.89L28.88 48.89L28.88 60.45L15.15 60.45L15.15 48.89Z" id="b31fxXNmRx"></path><path d="M1.56 48.89L15.3 48.89L15.3 60.45L1.56 60.45L1.56 48.89Z" id="cNelIX7GP"></path><path d="M56.41 60.36L70.15 60.36L70.15 71.92L56.41 71.92L56.41 60.36Z" id="ckQCCHlvP"></path><path d="M42.58 60.32L56.32 60.32L56.32 71.88L42.58 71.88L42.58 60.32Z" id="f18BJzgSwe"></path><path d="M28.85 60.39L42.58 60.39L42.58 71.95L28.85 71.95L28.85 60.39Z" id="baulELOSL"></path><path d="M15.21 60.46L28.95 60.46L28.95 72.02L15.21 72.02L15.21 60.46Z" id="a3yNTGKwK"></path><path d="M1.56 60.44L15.3 60.44L15.3 72.01L1.56 72.01L1.56 60.44Z" id="di0k3v9YE"></path><path d="M70.3 60.29L84.03 60.29L84.03 71.85L70.3 71.85L70.3 60.29Z" id="dguGhzNu7"></path><path d="M70.3 48.83L84.03 48.83L84.03 60.39L70.3 60.39L70.3 48.83Z" id="d1TpKmHkWc"></path><path d="M70.3 37.27L84.03 37.27L84.03 48.83L70.3 48.83L70.3 37.27Z" id="baTlJjGpc"></path><path d="M70.3 25.8L84.03 25.8L84.03 37.36L70.3 37.36L70.3 25.8Z" id="hdge3J7jy"></path><path d="M70.3 14.25L84.03 14.25L84.03 25.81L70.3 25.81L70.3 14.25Z" id="c4U64JsT0b"></path><path d="M70.3 2.69L84.03 2.69L84.03 14.25L70.3 14.25L70.3 2.69Z" id="boqGW03fk"></path><path d="M84.28 60.27L98.02 60.27L98.02 71.83L84.28 71.83L84.28 60.27Z" id="bGMP14L7"></path><path d="M84.28 48.81L98.02 48.81L98.02 60.37L84.28 60.37L84.28 48.81Z" id="f3nJtWTT0d"></path><path d="M84.28 37.25L98.02 37.25L98.02 48.81L84.28 48.81L84.28 37.25Z" id="b1qnYwapnK"></path><path d="M84.28 25.78L98.02 25.78L98.02 37.34L84.28 37.34L84.28 25.78Z" id="e4ZdADkW6"></path><path d="M84.28 14.23L98.02 14.23L98.02 25.79L84.28 25.79L84.28 14.23Z" id="b23bhymawR"></path><path d="M84.28 2.67L98.02 2.67L98.02 14.23L84.28 14.23L84.28 2.67Z" id="b2WjHLWe6"></path></defs><g><g><g><use xlink:href="#c18sdGuG7o" opacity="1" fill="#928b92" fill-opacity="1"></use></g><g><use xlink:href="#b8qxxuTUl" opacity="1" fill="#484248" fill-opacity="1"></use><g><use xlink:href="#b8qxxuTUl" opacity="1" fill-opacity="0" stroke="#ffffff" stroke-width="1" stroke-opacity="1"></use></g></g><g><use xlink:href="#c7eY1Zb6Yw" opacity="1" fill="#484248" fill-opacity="1"></use><g><use xlink:href="#c7eY1Zb6Yw" opacity="1" fill-opacity="0" stroke="#ffffff" stroke-width="1" stroke-opacity="1"></use></g></g><g><use xlink:href="#crQxcno3c" opacity="1" fill="#484248" fill-opacity="1"></use><g><use xlink:href="#crQxcno3c" opacity="1" fill-opacity="0" stroke="#ffffff" stroke-width="1" stroke-opacity="1"></use></g></g><g><use xlink:href="#gSWKYJrdX" opacity="1" fill="#484248" fill-opacity="1"></use><g><use xlink:href="#gSWKYJrdX" opacity="1" fill-opacity="0" stroke="#ffffff" stroke-width="1" stroke-opacity="1"></use></g></g><g><use xlink:href="#e4jm09WOp3" opacity="1" fill="#484248" fill-opacity="1"></use><g><use xlink:href="#e4jm09WOp3" opacity="1" fill-opacity="0" stroke="#ffffff" stroke-width="1" stroke-opacity="1"></use></g></g><g><use xlink:href="#gAzhcHoDw" opacity="1" fill="#484248" fill-opacity="1"></use><g><use xlink:href="#gAzhcHoDw" opacity="1" fill-opacity="0" stroke="#ffffff" stroke-width="1" stroke-opacity="1"></use></g></g><g><use xlink:href="#k8xvNVB1d" opacity="1" fill="#484248" fill-opacity="1"></use><g><use xlink:href="#k8xvNVB1d" opacity="1" fill-opacity="0" stroke="#ffffff" stroke-width="1" stroke-opacity="1"></use></g></g><g><use xlink:href="#b4eubKcNPO" opacity="1" fill="#484248" fill-opacity="1"></use><g><use xlink:href="#b4eubKcNPO" opacity="1" fill-opacity="0" stroke="#ffffff" stroke-width="1" stroke-opacity="1"></use></g></g><g><use xlink:href="#cwHJM0Yrl" opacity="1" fill="#484248" fill-opacity="1"></use><g><use xlink:href="#cwHJM0Yrl" opacity="1" fill-opacity="0" stroke="#ffffff" stroke-width="1" stroke-opacity="1"></use></g></g><g><use xlink:href="#hN7Z6UtrG" opacity="1" fill="#484248" fill-opacity="1"></use><g><use xlink:href="#hN7Z6UtrG" opacity="1" fill-opacity="0" stroke="#ffffff" stroke-width="1" stroke-opacity="1"></use></g></g><g><use xlink:href="#aDDJWx7DJ" opacity="1" fill="#484248" fill-opacity="1"></use><g><use xlink:href="#aDDJWx7DJ" opacity="1" fill-opacity="0" stroke="#ffffff" stroke-width="1" stroke-opacity="1"></use></g></g><g><use xlink:href="#a4TkfjjJ1j" opacity="1" fill="#484248" fill-opacity="1"></use><g><use xlink:href="#a4TkfjjJ1j" opacity="1" fill-opacity="0" stroke="#ffffff" stroke-width="1" stroke-opacity="1"></use></g></g><g><use xlink:href="#bagAh2XJp" opacity="1" fill="#484248" fill-opacity="1"></use><g><use xlink:href="#bagAh2XJp" opacity="1" fill-opacity="0" stroke="#ffffff" stroke-width="1" stroke-opacity="1"></use></g></g><g><use xlink:href="#g2MHknQXe" opacity="1" fill="#484248" fill-opacity="1"></use><g><use xlink:href="#g2MHknQXe" opacity="1" fill-opacity="0" stroke="#ffffff" stroke-width="1" stroke-opacity="1"></use></g></g><g><use xlink:href="#bBgHyCyeG" opacity="1" fill="#484248" fill-opacity="1"></use><g><use xlink:href="#bBgHyCyeG" opacity="1" fill-opacity="0" stroke="#ffffff" stroke-width="1" stroke-opacity="1"></use></g></g><g><use xlink:href="#b31fxXNmRx" opacity="1" fill="#484248" fill-opacity="1"></use><g><use xlink:href="#b31fxXNmRx" opacity="1" fill-opacity="0" stroke="#ffffff" stroke-width="1" stroke-opacity="1"></use></g></g><g><use xlink:href="#cNelIX7GP" opacity="1" fill="#484248" fill-opacity="1"></use><g><use xlink:href="#cNelIX7GP" opacity="1" fill-opacity="0" stroke="#ffffff" stroke-width="1" stroke-opacity="1"></use></g></g><g><use xlink:href="#ckQCCHlvP" opacity="1" fill="#484248" fill-opacity="1"></use><g><use xlink:href="#ckQCCHlvP" opacity="1" fill-opacity="0" stroke="#ffffff" stroke-width="1" stroke-opacity="1"></use></g></g><g><use xlink:href="#f18BJzgSwe" opacity="1" fill="#484248" fill-opacity="1"></use><g><use xlink:href="#f18BJzgSwe" opacity="1" fill-opacity="0" stroke="#ffffff" stroke-width="1" stroke-opacity="1"></use></g></g><g><use xlink:href="#baulELOSL" opacity="1" fill="#484248" fill-opacity="1"></use><g><use xlink:href="#baulELOSL" opacity="1" fill-opacity="0" stroke="#ffffff" stroke-width="1" stroke-opacity="1"></use></g></g><g><use xlink:href="#a3yNTGKwK" opacity="1" fill="#484248" fill-opacity="1"></use><g><use xlink:href="#a3yNTGKwK" opacity="1" fill-opacity="0" stroke="#ffffff" stroke-width="1" stroke-opacity="1"></use></g></g><g><use xlink:href="#di0k3v9YE" opacity="1" fill="#484248" fill-opacity="1"></use><g><use xlink:href="#di0k3v9YE" opacity="1" fill-opacity="0" stroke="#ffffff" stroke-width="1" stroke-opacity="1"></use></g></g><g><use xlink:href="#dguGhzNu7" opacity="1" fill="#484248" fill-opacity="1"></use><g><use xlink:href="#dguGhzNu7" opacity="1" fill-opacity="0" stroke="#ffffff" stroke-width="1" stroke-opacity="1"></use></g></g><g><use xlink:href="#d1TpKmHkWc" opacity="1" fill="#484248" fill-opacity="1"></use><g><use xlink:href="#d1TpKmHkWc" opacity="1" fill-opacity="0" stroke="#ffffff" stroke-width="1" stroke-opacity="1"></use></g></g><g><use xlink:href="#baTlJjGpc" opacity="1" fill="#484248" fill-opacity="1"></use><g><use xlink:href="#baTlJjGpc" opacity="1" fill-opacity="0" stroke="#ffffff" stroke-width="1" stroke-opacity="1"></use></g></g><g><use xlink:href="#hdge3J7jy" opacity="1" fill="#484248" fill-opacity="1"></use><g><use xlink:href="#hdge3J7jy" opacity="1" fill-opacity="0" stroke="#ffffff" stroke-width="1" stroke-opacity="1"></use></g></g><g><use xlink:href="#c4U64JsT0b" opacity="1" fill="#484248" fill-opacity="1"></use><g><use xlink:href="#c4U64JsT0b" opacity="1" fill-opacity="0" stroke="#ffffff" stroke-width="1" stroke-opacity="1"></use></g></g><g><use xlink:href="#boqGW03fk" opacity="1" fill="#484248" fill-opacity="1"></use><g><use xlink:href="#boqGW03fk" opacity="1" fill-opacity="0" stroke="#ffffff" stroke-width="1" stroke-opacity="1"></use></g></g><g><use xlink:href="#bGMP14L7" opacity="1" fill="#484248" fill-opacity="1"></use><g><use xlink:href="#bGMP14L7" opacity="1" fill-opacity="0" stroke="#ffffff" stroke-width="1" stroke-opacity="1"></use></g></g><g><use xlink:href="#f3nJtWTT0d" opacity="1" fill="#484248" fill-opacity="1"></use><g><use xlink:href="#f3nJtWTT0d" opacity="1" fill-opacity="0" stroke="#ffffff" stroke-width="1" stroke-opacity="1"></use></g></g><g><use xlink:href="#b1qnYwapnK" opacity="1" fill="#484248" fill-opacity="1"></use><g><use xlink:href="#b1qnYwapnK" opacity="1" fill-opacity="0" stroke="#ffffff" stroke-width="1" stroke-opacity="1"></use></g></g><g><use xlink:href="#e4ZdADkW6" opacity="1" fill="#484248" fill-opacity="1"></use><g><use xlink:href="#e4ZdADkW6" opacity="1" fill-opacity="0" stroke="#ffffff" stroke-width="1" stroke-opacity="1"></use></g></g><g><use xlink:href="#b23bhymawR" opacity="1" fill="#484248" fill-opacity="1"></use><g><use xlink:href="#b23bhymawR" opacity="1" fill-opacity="0" stroke="#ffffff" stroke-width="1" stroke-opacity="1"></use></g></g><g><use xlink:href="#b2WjHLWe6" opacity="1" fill="#484248" fill-opacity="1"></use><g><use xlink:href="#b2WjHLWe6" opacity="1" fill-opacity="0" stroke="#ffffff" stroke-width="1" stroke-opacity="1"></use></g></g></g></g></svg>