<?xml version="1.0" encoding="UTF-8" standalone="no" ?>
<!DOCTYPE svg PUBLIC "-//W3C//DTD SVG 1.1//EN" "http://www.w3.org/Graphics/SVG/1.1/DTD/svg11.dtd">
<svg xmlns="http://www.w3.org/2000/svg" xmlns:xlink="http://www.w3.org/1999/xlink" version="1.1" width="100" height="75" viewBox="0 0 100 75" xml:space="preserve">
<desc>Created with Fabric.js 4.6.0</desc>
<defs>
</defs>
<g transform="matrix(1 0 0 1 51.11 38.16)" id="G_Gpbuumu-AARa37IT1bi"  >
<path style="stroke: none; stroke-width: 1; stroke-dasharray: none; stroke-linecap: butt; stroke-dashoffset: 0; stroke-linejoin: miter; stroke-miterlimit: 4; fill: rgb(146,139,146); fill-rule: nonzero; opacity: 1;" vector-effect="non-scaling-stroke"  transform=" translate(-50, -37.5)" d="M 0 0 L 100 0 L 100 75 L 0 75 L 0 0 Z" stroke-linecap="round" />
</g>
<g transform="matrix(1 0 0 1 64.39 66.8)" id="-XuGyFUmldDCpHvI5WgQZ"  >
<path style="stroke: none; stroke-width: 1; stroke-dasharray: none; stroke-linecap: butt; stroke-dashoffset: 0; stroke-linejoin: miter; stroke-miterlimit: 4; fill: rgb(72,66,72); fill-rule: nonzero; opacity: 1;" vector-effect="non-scaling-stroke"  transform=" translate(-63.28, -66.14)" d="M 56.41 60.36 L 70.15 60.36 L 70.15 71.92 L 56.41 71.92 L 56.41 60.36 Z" stroke-linecap="round" />
</g>
<g transform="matrix(1 0 0 1 64.39 66.8)" id="xssvqhp-bljZU7Qn3uznn"  >
<path style="stroke: rgb(255,255,255); stroke-width: 1; stroke-dasharray: none; stroke-linecap: butt; stroke-dashoffset: 0; stroke-linejoin: miter; stroke-miterlimit: 4; fill: rgb(0,0,0); fill-opacity: 0; fill-rule: nonzero; opacity: 1;" vector-effect="non-scaling-stroke"  transform=" translate(-63.28, -66.14)" d="M 56.41 60.36 L 70.15 60.36 L 70.15 71.92 L 56.41 71.92 L 56.41 60.36 Z" stroke-linecap="round" />
</g>
<g transform="matrix(1 0 0 1 50.56 66.76)" id="Bomof6YxJPm4nIwZ5vJ8w"  >
<path style="stroke: none; stroke-width: 1; stroke-dasharray: none; stroke-linecap: butt; stroke-dashoffset: 0; stroke-linejoin: miter; stroke-miterlimit: 4; fill: rgb(72,66,72); fill-rule: nonzero; opacity: 1;" vector-effect="non-scaling-stroke"  transform=" translate(-49.45, -66.1)" d="M 42.58 60.32 L 56.32 60.32 L 56.32 71.88 L 42.58 71.88 L 42.58 60.32 Z" stroke-linecap="round" />
</g>
<g transform="matrix(1 0 0 1 50.56 66.76)" id="aDz1FNiEGq43Phd8MLixc"  >
<path style="stroke: rgb(255,255,255); stroke-width: 1; stroke-dasharray: none; stroke-linecap: butt; stroke-dashoffset: 0; stroke-linejoin: miter; stroke-miterlimit: 4; fill: rgb(0,0,0); fill-opacity: 0; fill-rule: nonzero; opacity: 1;" vector-effect="non-scaling-stroke"  transform=" translate(-49.45, -66.1)" d="M 42.58 60.32 L 56.32 60.32 L 56.32 71.88 L 42.58 71.88 L 42.58 60.32 Z" stroke-linecap="round" />
</g>
<g transform="matrix(1 0 0 1 36.83 66.83)" id="zbRHKmO1IQXvRWPfRJwkm"  >
<path style="stroke: none; stroke-width: 1; stroke-dasharray: none; stroke-linecap: butt; stroke-dashoffset: 0; stroke-linejoin: miter; stroke-miterlimit: 4; fill: rgb(72,66,72); fill-rule: nonzero; opacity: 1;" vector-effect="non-scaling-stroke"  transform=" translate(-35.72, -66.17)" d="M 28.85 60.39 L 42.58 60.39 L 42.58 71.95 L 28.85 71.95 L 28.85 60.39 Z" stroke-linecap="round" />
</g>
<g transform="matrix(1 0 0 1 36.83 66.83)" id="Q5b2z1Ah01JmDqv5xos2H"  >
<path style="stroke: rgb(255,255,255); stroke-width: 1; stroke-dasharray: none; stroke-linecap: butt; stroke-dashoffset: 0; stroke-linejoin: miter; stroke-miterlimit: 4; fill: rgb(0,0,0); fill-opacity: 0; fill-rule: nonzero; opacity: 1;" vector-effect="non-scaling-stroke"  transform=" translate(-35.72, -66.17)" d="M 28.85 60.39 L 42.58 60.39 L 42.58 71.95 L 28.85 71.95 L 28.85 60.39 Z" stroke-linecap="round" />
</g>
<g transform="matrix(1 0 0 1 23.19 66.9)" id="UhgQZ79Nw2Qhmits4eV8T"  >
<path style="stroke: none; stroke-width: 1; stroke-dasharray: none; stroke-linecap: butt; stroke-dashoffset: 0; stroke-linejoin: miter; stroke-miterlimit: 4; fill: rgb(72,66,72); fill-rule: nonzero; opacity: 1;" vector-effect="non-scaling-stroke"  transform=" translate(-22.08, -66.24)" d="M 15.21 60.46 L 28.95 60.46 L 28.95 72.02 L 15.21 72.02 L 15.21 60.46 Z" stroke-linecap="round" />
</g>
<g transform="matrix(1 0 0 1 23.19 66.9)" id="E2SPtQzTwrPLuhHOgK9UN"  >
<path style="stroke: rgb(255,255,255); stroke-width: 1; stroke-dasharray: none; stroke-linecap: butt; stroke-dashoffset: 0; stroke-linejoin: miter; stroke-miterlimit: 4; fill: rgb(0,0,0); fill-opacity: 0; fill-rule: nonzero; opacity: 1;" vector-effect="non-scaling-stroke"  transform=" translate(-22.08, -66.24)" d="M 15.21 60.46 L 28.95 60.46 L 28.95 72.02 L 15.21 72.02 L 15.21 60.46 Z" stroke-linecap="round" />
</g>
<g transform="matrix(1 0 0 1 9.54 66.89)" id="_-IwMIwdd0h_YBkjh3VPe"  >
<path style="stroke: none; stroke-width: 1; stroke-dasharray: none; stroke-linecap: butt; stroke-dashoffset: 0; stroke-linejoin: miter; stroke-miterlimit: 4; fill: rgb(72,66,72); fill-rule: nonzero; opacity: 1;" vector-effect="non-scaling-stroke"  transform=" translate(-8.43, -66.22)" d="M 1.56 60.44 L 15.3 60.44 L 15.3 72.01 L 1.56 72.01 L 1.56 60.44 Z" stroke-linecap="round" />
</g>
<g transform="matrix(1 0 0 1 9.54 66.89)" id="VHhbL0uyRSqWJhyQx472-"  >
<path style="stroke: rgb(255,255,255); stroke-width: 1; stroke-dasharray: none; stroke-linecap: butt; stroke-dashoffset: 0; stroke-linejoin: miter; stroke-miterlimit: 4; fill: rgb(0,0,0); fill-opacity: 0; fill-rule: nonzero; opacity: 1;" vector-effect="non-scaling-stroke"  transform=" translate(-8.43, -66.22)" d="M 1.56 60.44 L 15.3 60.44 L 15.3 72.01 L 1.56 72.01 L 1.56 60.44 Z" stroke-linecap="round" />
</g>
<g transform="matrix(1 0 0 1 78.27 66.73)" id="uHycZAEINaE84940_SpWk"  >
<path style="stroke: none; stroke-width: 1; stroke-dasharray: none; stroke-linecap: butt; stroke-dashoffset: 0; stroke-linejoin: miter; stroke-miterlimit: 4; fill: rgb(72,66,72); fill-rule: nonzero; opacity: 1;" vector-effect="non-scaling-stroke"  transform=" translate(-77.16, -66.07)" d="M 70.3 60.29 L 84.03 60.29 L 84.03 71.85 L 70.3 71.85 L 70.3 60.29 Z" stroke-linecap="round" />
</g>
<g transform="matrix(1 0 0 1 78.27 66.73)" id="JO2uVl8iIWeFxYN4H3daj"  >
<path style="stroke: rgb(255,255,255); stroke-width: 1; stroke-dasharray: none; stroke-linecap: butt; stroke-dashoffset: 0; stroke-linejoin: miter; stroke-miterlimit: 4; fill: rgb(0,0,0); fill-opacity: 0; fill-rule: nonzero; opacity: 1;" vector-effect="non-scaling-stroke"  transform=" translate(-77.16, -66.07)" d="M 70.3 60.29 L 84.03 60.29 L 84.03 71.85 L 70.3 71.85 L 70.3 60.29 Z" stroke-linecap="round" />
</g>
<g transform="matrix(0.96 0 0 1 92.01 66.71)" id="IbZoIdq699jOQyJp7gU7O"  >
<path style="stroke: none; stroke-width: 1; stroke-dasharray: none; stroke-linecap: butt; stroke-dashoffset: 0; stroke-linejoin: miter; stroke-miterlimit: 4; fill: rgb(72,66,72); fill-rule: nonzero; opacity: 1;" vector-effect="non-scaling-stroke"  transform=" translate(-91.15, -66.05)" d="M 84.28 60.27 L 98.02 60.27 L 98.02 71.83 L 84.28 71.83 L 84.28 60.27 Z" stroke-linecap="round" />
</g>
<g transform="matrix(1 0 0 1 92.01 66.71)" id="QyLqTKnxF3dRKaaoCn1ax"  >
<path style="stroke: rgb(255,255,255); stroke-width: 1; stroke-dasharray: none; stroke-linecap: butt; stroke-dashoffset: 0; stroke-linejoin: miter; stroke-miterlimit: 4; fill: rgb(0,0,0); fill-opacity: 0; fill-rule: nonzero; opacity: 1;" vector-effect="non-scaling-stroke"  transform=" translate(-91.15, -66.05)" d="M 84.28 60.27 L 98.02 60.27 L 98.02 71.83 L 84.28 71.83 L 84.28 60.27 Z" stroke-linecap="round" />
</g>
<g transform="matrix(1 0 0 1 50.89 32.07)" id="hY7kXjKsb5ghJAcHG_-Hi"  >
<path style="stroke: none; stroke-width: 1; stroke-dasharray: none; stroke-linecap: butt; stroke-dashoffset: 0; stroke-linejoin: miter; stroke-miterlimit: 4; fill: rgb(72,66,72); fill-rule: nonzero; opacity: 1;" vector-effect="non-scaling-stroke"  transform=" translate(-49.77, -31.41)" d="M 1.56 2.42 L 97.99 2.42 L 97.99 60.4 L 1.56 60.4 L 1.56 2.42 Z" stroke-linecap="round" />
</g>
<g transform="matrix(0.5 0 0 0.58 27.03 19.99)" id="-6VuKagsl0XmVzBZGhcTp"  >
<path style="stroke: rgb(255,255,255); stroke-width: 1; stroke-dasharray: none; stroke-linecap: butt; stroke-dashoffset: 0; stroke-linejoin: miter; stroke-miterlimit: 4; fill: rgb(0,0,0); fill-opacity: 0; fill-rule: nonzero; opacity: 1;" vector-effect="non-scaling-stroke"  transform=" translate(-49.77, -31.41)" d="M 1.56 2.42 L 97.99 2.42 L 97.99 60.4 L 1.56 60.4 L 1.56 2.42 Z" stroke-linecap="round" />
</g>
<g transform="matrix(0.49 0 0 0.58 75.01 19.99)" id="JDAy1eHiM_oqgrO2xrExf"  >
<path style="stroke: rgb(255,255,255); stroke-width: 1; stroke-dasharray: none; stroke-linecap: butt; stroke-dashoffset: 0; stroke-linejoin: miter; stroke-miterlimit: 4; fill: rgb(0,0,0); fill-opacity: 0; fill-rule: nonzero; opacity: 1;" vector-effect="non-scaling-stroke"  transform=" translate(-49.77, -31.41)" d="M 1.56 2.42 L 97.99 2.42 L 97.99 60.4 L 1.56 60.4 L 1.56 2.42 Z" stroke-linecap="round" />
</g>
<g transform="matrix(0.32 0 0 0.42 83.07 48.88)" id="ksDXu9z_vuZMggsYjgNWT"  >
<path style="stroke: rgb(255,255,255); stroke-width: 1; stroke-dasharray: none; stroke-linecap: butt; stroke-dashoffset: 0; stroke-linejoin: miter; stroke-miterlimit: 4; fill: rgb(0,0,0); fill-opacity: 0; fill-rule: nonzero; opacity: 1;" vector-effect="non-scaling-stroke"  transform=" translate(-49.77, -31.41)" d="M 1.56 2.42 L 97.99 2.42 L 97.99 60.4 L 1.56 60.4 L 1.56 2.42 Z" stroke-linecap="round" />
</g>
<g transform="matrix(0.33 0 0 0.42 51.65 48.88)" id="m27hLlcuclg3uEHOdn-DX"  >
<path style="stroke: rgb(255,255,255); stroke-width: 1; stroke-dasharray: none; stroke-linecap: butt; stroke-dashoffset: 0; stroke-linejoin: miter; stroke-miterlimit: 4; fill: rgb(0,0,0); fill-opacity: 0; fill-rule: nonzero; opacity: 1;" vector-effect="non-scaling-stroke"  transform=" translate(-49.77, -31.41)" d="M 1.56 2.42 L 97.99 2.42 L 97.99 60.4 L 1.56 60.4 L 1.56 2.42 Z" stroke-linecap="round" />
</g>
<g transform="matrix(0.34 0 0 0.42 19.31 48.88)" id="_rur8V7_QHSWIaAQeAifB"  >
<path style="stroke: rgb(255,255,255); stroke-width: 1; stroke-dasharray: none; stroke-linecap: butt; stroke-dashoffset: 0; stroke-linejoin: miter; stroke-miterlimit: 4; fill: rgb(0,0,0); fill-opacity: 0; fill-rule: nonzero; opacity: 1;" vector-effect="non-scaling-stroke"  transform=" translate(-49.77, -31.41)" d="M 1.56 2.42 L 97.99 2.42 L 97.99 60.4 L 1.56 60.4 L 1.56 2.42 Z" stroke-linecap="round" />
</g>
</svg>