<?xml version="1.0" encoding="UTF-8" standalone="no"?>
<!DOCTYPE svg PUBLIC "-//W3C//DTD SVG 1.1//EN" "http://www.w3.org/Graphics/SVG/1.1/DTD/svg11.dtd">
<svg version="1.1" xmlns="http://www.w3.org/2000/svg" xmlns:xlink="http://www.w3.org/1999/xlink" preserveAspectRatio="xMidYMid meet" viewBox="0 0 100 75" width="100" height="75"><defs><path d="M0 0L100 0L100 75L0 75L0 0Z" id="c18sdGuG7o"></path><path d="M56.41 60.36L70.15 60.36L70.15 71.92L56.41 71.92L56.41 60.36Z" id="d270T5BM"></path><path d="M42.58 60.32L56.32 60.32L56.32 71.88L42.58 71.88L42.58 60.32Z" id="aIGJzNY6h"></path><path d="M28.85 60.39L42.58 60.39L42.58 71.95L28.85 71.95L28.85 60.39Z" id="k2Ks0kCcX"></path><path d="M15.21 60.46L28.95 60.46L28.95 72.02L15.21 72.02L15.21 60.46Z" id="a5NIy8PWWj"></path><path d="M1.56 60.44L15.3 60.44L15.3 72.01L1.56 72.01L1.56 60.44Z" id="d38wQOkEoX"></path><path d="M70.3 60.29L84.03 60.29L84.03 71.85L70.3 71.85L70.3 60.29Z" id="aMNI06nVQ"></path><path d="M84.28 60.27L98.02 60.27L98.02 71.83L84.28 71.83L84.28 60.27Z" id="b9SW2Ocg"></path><path d="M1.56 2.42L97.99 2.42L97.99 60.4L1.56 60.4L1.56 2.42Z" id="f9dX03uWYX"></path></defs><g><g><g><use xlink:href="#c18sdGuG7o" opacity="1" fill="#928b92" fill-opacity="1"></use></g><g><use xlink:href="#d270T5BM" opacity="1" fill="#484248" fill-opacity="1"></use><g><use xlink:href="#d270T5BM" opacity="1" fill-opacity="0" stroke="#ffffff" stroke-width="1" stroke-opacity="1"></use></g></g><g><use xlink:href="#aIGJzNY6h" opacity="1" fill="#484248" fill-opacity="1"></use><g><use xlink:href="#aIGJzNY6h" opacity="1" fill-opacity="0" stroke="#ffffff" stroke-width="1" stroke-opacity="1"></use></g></g><g><use xlink:href="#k2Ks0kCcX" opacity="1" fill="#484248" fill-opacity="1"></use><g><use xlink:href="#k2Ks0kCcX" opacity="1" fill-opacity="0" stroke="#ffffff" stroke-width="1" stroke-opacity="1"></use></g></g><g><use xlink:href="#a5NIy8PWWj" opacity="1" fill="#484248" fill-opacity="1"></use><g><use xlink:href="#a5NIy8PWWj" opacity="1" fill-opacity="0" stroke="#ffffff" stroke-width="1" stroke-opacity="1"></use></g></g><g><use xlink:href="#d38wQOkEoX" opacity="1" fill="#484248" fill-opacity="1"></use><g><use xlink:href="#d38wQOkEoX" opacity="1" fill-opacity="0" stroke="#ffffff" stroke-width="1" stroke-opacity="1"></use></g></g><g><use xlink:href="#aMNI06nVQ" opacity="1" fill="#484248" fill-opacity="1"></use><g><use xlink:href="#aMNI06nVQ" opacity="1" fill-opacity="0" stroke="#ffffff" stroke-width="1" stroke-opacity="1"></use></g></g><g><use xlink:href="#b9SW2Ocg" opacity="1" fill="#484248" fill-opacity="1"></use><g><use xlink:href="#b9SW2Ocg" opacity="1" fill-opacity="0" stroke="#ffffff" stroke-width="1" stroke-opacity="1"></use></g></g><g><use xlink:href="#f9dX03uWYX" opacity="1" fill="#484248" fill-opacity="1"></use><g><use xlink:href="#f9dX03uWYX" opacity="1" fill-opacity="0" stroke="#ffffff" stroke-width="1" stroke-opacity="1"></use></g></g></g></g></svg>